<?xml version="1.0" encoding="utf-8"?>
<!-- Generator: Adobe Illustrator 18.1.1, SVG Export Plug-In . SVG Version: 6.00 Build 0)  -->
<svg version="1.1" id="Layer_1" xmlns="http://www.w3.org/2000/svg" xmlns:xlink="http://www.w3.org/1999/xlink" x="0px" y="0px"
	 width="17px" height="19px" viewBox="0 0 17 19" enable-background="new 0 0 17 19" xml:space="preserve">
<path fill="none" stroke="#BFC5D1" stroke-width="1.5" stroke-linecap="round" stroke-linejoin="round" stroke-miterlimit="10" d="
	M12.2,14.4c2.2,0.3,3.8,1,3.8,1.7c0,1.1-3.3,2-7.5,2S1,17.2,1,16.1c0-0.7,1.5-1.4,3.8-1.7"/>
<g>
	<path fill="#BFC5D1" d="M8.5,1.7c1.4,0,2.7,0.7,3.5,1.9c0.7,1,0.8,2.2,0.3,3.3c-0.7,1.5-2.5,4.7-3.8,6.9c-1.3-2.2-3.1-5.4-3.8-6.9
		C4.2,5.8,4.3,4.6,5,3.6C5.8,2.4,7.1,1.7,8.5,1.7 M8.5,0.2L8.5,0.2C4.7,0.2,1.8,4,3.3,7.5c1.1,2.4,5.2,9.2,5.2,9.2s4.1-6.8,5.2-9.2
		C15.2,4,12.3,0.2,8.5,0.2L8.5,0.2z"/>
</g>
<circle fill="none" stroke="#BFC5D1" stroke-width="1.5" stroke-miterlimit="10" cx="8.5" cy="5.8" r="2.1"/>
</svg>
