<?xml version="1.0" encoding="utf-8"?>
<!-- Generator: Adobe Illustrator 18.1.1, SVG Export Plug-In . SVG Version: 6.00 Build 0)  -->
<svg version="1.1" id="Layer_1" xmlns="http://www.w3.org/2000/svg" xmlns:xlink="http://www.w3.org/1999/xlink" x="0px" y="0px"
	 width="16px" height="15px" viewBox="0 0 16 15" enable-background="new 0 0 16 15" xml:space="preserve">
<path fill="#676c71" d="M5.3,9.9v3.3H1.7V9.9H5.3 M6.1,8.2H0.9C0.4,8.2,0,8.5,0,9v5c0,0.5,0.4,0.9,0.9,0.9h5.2
	c0.5,0,0.9-0.4,0.9-0.9V9C6.9,8.5,6.6,8.2,6.1,8.2L6.1,8.2z"/>
<path fill="#676c71" d="M9.8,1.8v3.3H6.2V1.8H9.8 M10.6,0.1H5.4C4.9,0.1,4.5,0.5,4.5,1v5c0,0.5,0.4,0.9,0.9,0.9h5.2
	c0.5,0,0.9-0.4,0.9-0.9V1C11.5,0.5,11.1,0.1,10.6,0.1L10.6,0.1z"/>
<path fill="#676c71" d="M14.3,9.9v3.3h-3.6V9.9H14.3 M15.1,8.2H9.9C9.4,8.2,9.1,8.5,9.1,9v5c0,0.5,0.4,0.9,0.9,0.9h5.2
	c0.5,0,0.9-0.4,0.9-0.9V9C16,8.5,15.6,8.2,15.1,8.2L15.1,8.2z"/>
</svg>
