<?xml version="1.0" encoding="utf-8"?>
<!-- Generator: Adobe Illustrator 18.1.1, SVG Export Plug-In . SVG Version: 6.00 Build 0)  -->
<svg version="1.1" id="Layer_1" xmlns="http://www.w3.org/2000/svg" xmlns:xlink="http://www.w3.org/1999/xlink" x="0px" y="0px"
	 width="20px" height="14px" viewBox="0 0 20 14" enable-background="new 0 0 20 14" xml:space="preserve">
<g>
	<g>
		<g>
			<path fill="#FFFFFF" d="M13.9,9.2c0,0.8-0.3,1.4-0.9,2c-0.5,0.4-1.1,0.7-1.9,0.9c-0.4,0.1-0.6,0.4-0.6,0.7v1.1H9.4v-1
				c0-0.4-0.3-0.7-0.7-0.8c-0.8-0.1-1.5-0.2-2.1-0.4c-0.3-0.1-0.5-0.4-0.5-0.7V9.8c0.5,0.2,1,0.4,1.6,0.6c0.6,0.2,1.2,0.2,1.7,0.2
				V7.5L8.7,7.3C7.9,6.9,7.2,6.5,6.8,6C6.5,5.7,6.3,5.3,6.2,4.8c-0.2-1,0.2-2,1-2.6c0.6-0.4,1.3-0.6,2.2-0.7V0.2h1.1v1.3
				c0.8,0,1.6,0.2,2.4,0.4c0.4,0.1,0.6,0.6,0.4,1l0,0.1c-0.1,0.4-0.5,0.6-0.9,0.5c-0.3-0.1-0.7-0.2-1-0.3c-0.5-0.1-0.9,0.3-0.9,0.7
				V6l0.6,0.2c1,0.4,1.8,0.8,2.1,1.3S13.9,8.5,13.9,9.2z M8.1,4.3c0,0.3,0.1,0.6,0.3,0.8c0.2,0.2,0.5,0.4,1.1,0.6V3.1
				C9,3.2,8.7,3.3,8.4,3.5C8.2,3.7,8.1,4,8.1,4.3z M12,9.3c0-0.3-0.1-0.6-0.3-0.8c-0.2-0.2-0.6-0.4-1.1-0.6v2.6
				C11.5,10.4,12,10,12,9.3z"/>
		</g>
	</g>
</g>
<g>
	<g>
		<path fill="#FFFFFF" d="M3.5,10.8c-1.8,0-3.3-1.5-3.3-3.3s1.5-3.3,3.3-3.3c0.4,0,0.8,0.3,0.8,0.8S3.9,5.7,3.5,5.7
			c-1,0-1.8,0.8-1.8,1.8s0.8,1.8,1.8,1.8c0.4,0,0.8,0.3,0.8,0.8S3.9,10.8,3.5,10.8z"/>
	</g>
	<g>
		<path fill="#FFFFFF" d="M16.5,10.8c-0.4,0-0.8-0.3-0.8-0.8s0.3-0.8,0.8-0.8c1,0,1.8-0.8,1.8-1.8s-0.8-1.8-1.8-1.8
			c-0.4,0-0.8-0.3-0.8-0.8s0.3-0.8,0.8-0.8c1.8,0,3.3,1.5,3.3,3.3S18.3,10.8,16.5,10.8z"/>
	</g>
</g>
</svg>
