<?xml version="1.0" encoding="utf-8"?>
<!-- Generator: Adobe Illustrator 18.1.1, SVG Export Plug-In . SVG Version: 6.00 Build 0)  -->
<svg version="1.1" id="Layer_1" xmlns="http://www.w3.org/2000/svg" xmlns:xlink="http://www.w3.org/1999/xlink" x="0px" y="0px"
	 width="884.5px" height="476.8px" viewBox="0 0 884.5 476.8" enable-background="new 0 0 884.5 476.8" xml:space="preserve">
<g>
	<path fill="#020202" d="M828.1,173.5c0.9-0.1,1.9-0.3,2.8-0.4c2.3,1.2,4,0.5,5.2-1.7c0.6-0.1,1.2-0.2,1.8-0.3
		c2.5,0.9,4.8,1,6.2-1.8c0.6-0.1,1.2-0.2,1.8-0.3c1.8,1.4,3.4,0.1,5.1-0.3c4-1.1,8-2.1,12-3.1c-0.8,1.7-1.9,2.4-3.1,3
		c-31,13.3-62.2,26.3-93.1,39.8c-24.3,10.6-48.6,21.2-73,31.6c-20.8,8.9-41.6,17.7-62.2,26.7c-32,14.1-64.2,27.8-96.3,41.6
		c-27.2,11.7-54.4,23.6-81.6,35.2c-34,14.5-67.8,29.3-101.7,43.8c-27.3,11.7-54.4,23.7-81.7,35.2c-29,12.3-57.8,24.9-86.6,37.8
		c-2.3,1-6,0.3-7.1,3.8c-0.6,0.1-1.2,0.2-1.8,0.4c-6.3-0.4-11.9,2.7-17.9,4c-11.3,2.5-22.6,5.3-34.1,5.4
		c-12.9,0.1-25.8,1.4-38.8-1.6c-7.2-1.7-14.4-3.1-21.3-5.8c-13.2-5-24.8-12.5-35.4-21.5c-14.4-12.2-22.9-27.7-24.6-46.7
		c-0.3-3.6-0.8-7.2-2.1-10.6c0-1.6,0-3.3,0-4.9c1.5-2.7,2-5.6,2-8.6c0.3-12.1,3.9-23.6,7.6-34.9c8-24.7,20-47.7,33.3-70
		c16.1-26.9,34.5-52.2,54.1-76.7c2.4-3,4.4-6.6,7.9-8.8c1,1.6,0.1,2.6-0.4,3.9c-2.5,6.6-4.9,13.2-7.3,19.9
		c-3.7,10.3-5.6,21-7.4,31.9c-2.6,15.8-1.2,31.2,3.9,46.1c6.5,19.3,18.9,33.9,37,43.6c20,10.7,41.5,14.4,63.9,12.7
		c11.4-0.9,22.7-3.3,33.6-6.6c3.3-1,7.8,0.1,10.1-3.9c0.5-0.1,1-0.1,1.6-0.2c1.8,0.8,3.5,0.3,5.3-0.3c3.2-1.1,6.5-2.4,9.8-3
		c12-2.1,23.5-6,35.2-8.9c13.1-3.2,26.1-6.9,39.1-10.7c3.4-1,7.8-0.4,10.3-4c0.6-0.1,1.2-0.2,1.8-0.2c0.8,0.9,1.9,0.7,2.8,0.4
		c8.8-2.5,17.6-5.1,26.5-7.4c16.9-4.5,33.9-8.7,50.7-13.5c3.8-1.1,8.3-0.9,11.3-4.2c0.6-0.1,1.2-0.2,1.8-0.3
		c4.9,0.4,9.3-0.8,13.2-3.7c0.6-0.1,1.2-0.2,1.8-0.3c1.7,1.2,3.6,0.7,5.2,0c5.9-2.6,12.3-3.4,18.5-5.3c9.8-3,19.7-5.4,29.6-8
		c11.6-3.1,23.4-5.8,34.9-9.3c7.9-2.4,16.4-2.8,24.7-8.5c-11.4,0-21.5-0.2-31.7,0.1c-4.3,0.1-4.8-1.5-3.5-5
		c6.3-17.3,12.3-34.8,18.7-52.1c8-21.8,16.5-43.4,24.2-65.3c7.8-22.3,16.5-44.2,24-66.5c5.5-16.4,12.2-32.3,18-48.6
		c1.2-3.3,2.4-5.1,6.1-5.1c31.5,0.1,63,0.1,94.5,0c4.1,0,4.8,1.1,3.3,5c-4.7,12.3-9,24.7-13.3,37.1c-1.1,3.3-2.8,4.8-6.5,4.7
		c-11.2-0.2-22.3,0.2-33.5-0.2c-4.2-0.2-6.5,1.8-7.4,5c-3.8,12.5-9,24.4-13.1,36.7c-1.8,5.4-1,6.5,4.6,6.6c9.8,0.1,19.7,0.1,29.5,0
		c2.9,0,4.2,1,3.1,3.8c-4.6,12.4-9.6,24.6-13.9,37.1c-1.2,3.3-2.7,3.9-5.7,3.9c-10.2-0.1-20.3-0.1-30.5,0c-1.6,0-3.7-1-4.9,1.3
		l-0.1,0.2c-1.7,0.4-2.1,1.8-2.6,3.2c-3.3,9.1-6.8,18.1-10.2,27.2c-2.3,6.1-4.5,12.3-6.6,18.4c-1.2,3.4-0.9,3.7,1.7,4.6
		c13.3,0,26.6,0,39.9,0.1c1.5,0,3.9-1.3,4.4,1.6c-0.5,0.2-1.2,0.3-1.3,0.6c-2.8,7.6-5.6,15.2-8.3,22.8c-0.7,1.9,0.2,2.5,1.8,2.5
		c1.6,0,3.3-0.1,4.9-0.5c11.6-3.1,23.1-6.4,34.6-9.5c11.8-3.2,23.8-5.8,35.4-9.4c3.2-1,7.6-0.1,9.8-3.8c0.6-0.1,1.2-0.2,1.8-0.3
		c1.2,1.1,2.5,0.6,3.8,0.2c14.2-3.9,28.4-7.9,42.7-11.7c14.3-3.8,28.8-7.2,43-11.5C822.2,176.3,826.3,177.2,828.1,173.5z"/>
	<path fill="#020202" d="M383.6,196.5c0-0.3,0.1-0.5,0.3-0.7c1.6-0.1,2.1-0.7,1-2c0.1-0.6,0.3-1.2,0.4-1.8c1.2-0.5,1.8-1.3,1.1-2.6
		c0.5-1.5,1-3,1.5-4.6c1.8-0.2,1.9-1.1,1.2-2.5c4.4-12.5,8.8-25,13.3-37.5c9.4-25.7,18.9-51.4,28.2-77.1
		c7.8-21.3,15.5-42.7,23.1-64.1c0.8-2.3,2.2-3.1,4.4-3.1c17.8,0,35.7,0,53.5,0c5.3,0,2.9,3.4,2.2,5.4c-4.3,12.2-8.8,24.3-13.2,36.5
		c-4.6,12.8-9.3,25.5-13.9,38.3c-1.5,0.3-2.1,1-1.2,2.5c-0.3,1.1-0.6,2.3-0.9,3.4c-2,0.4-2.2,1.7-1.5,3.4c-0.1,0.6-0.1,1.1-0.2,1.7
		c-2,0.8-3.1,2.6-1.5,4.1c1.3,1.1,2.2-1.3,3.2-2.2c0.3-0.3,0.1-1.2,0.2-1.8c2.4-3.6,4.7-7.3,7.1-10.9c2.3,0.2,2.5-2.1,3.3-3.2
		c16.2-24.2,32.3-48.6,48.3-72.9c1.2-1.8,2.3-3.2,4.6-3.2c16.7,0,33.3,0,50,0c3.4,0,3.6,1.8,2.1,4.1c-1.6,2.5-3.5,4.8-5.3,7.2
		c-20.3,28.9-40.4,58-61,86.7c-4.7,6.6-6.9,13.2-7.4,21c-0.9,12.6-0.1,25.3-1.8,37.9c-1,7.7-1.4,15.5-0.3,23.3
		c-0.1,2.3-0.2,4.5-0.2,6.8c-3.1,9.6-2.5,19.4-1.8,29.2c-0.1,2.9-0.2,5.8-0.3,8.8c-2.2,4.3-1.9,8.9-2,13.5c-0.1,2.6-0.7,3.9-3.7,3.9
		c-19-0.1-37.9-0.1-56.9,0c-3.1,0-4.1-1.1-3.7-4.2c1.2-10.6,2.1-21.1,3.4-31.7c1.7-14.3,3.8-28.6,5.5-42.9c0.3-2.4,0.9-4.9-0.3-7.3
		c0.1-0.6,0.1-1.2,0.2-1.8c3.4-4.9,2.1-10.5,2.2-15.8c0-0.5-0.7-1.3-1.1-1.4c-0.9-0.2-1.6,0.6-1.6,1.5c0,2.3-1.4,4-2.2,6
		c-5.4,14.9-11.2,29.6-16.2,44.6c-1.5,4.5-4.4,8.7-4.1,13.8c-0.1,0.6-0.3,1.2-0.4,1.8c-1.1,0.3-1.6,1.1-2,2.1
		c-3.6,10-7.2,19.9-10.6,29.9c-1.3,3.7-3,5.6-7.5,5.5c-15.8-0.3-31.6-0.1-47.4-0.1c-6,0-6.2-0.2-4.1-5.7c3.1-8.4,6.6-16.6,9.3-25.1
		C380.4,207.5,384,202.6,383.6,196.5z"/>
	<path fill="#020202" d="M233.3,128.4c0.1-1.5,0.2-3,0.3-4.6c3.6-3.2,1.6-7.5,2.2-11.3c0.2-1.4,0.9-3.8-1.3-4.2
		c-1.8-0.3-1.5,2.3-2.7,3.2c-0.3,0.2-0.4,0.9-0.6,1.3c-7.2,20.2-14.3,40.4-21.6,60.5c-8,22-16.4,43.8-24.2,65.8
		c-1.3,3.6-3,4-6.1,4.1c-13.8,0.2-27.6-0.6-41.4,0.5c-3.9,0.3-4.8-1.4-3.3-5.4c2.6-6.8,5.5-13.5,7.9-20.3
		c4.5-12.5,8.6-25.2,13.1-37.7c5.1-14.1,10.8-28,15.9-42.1c8.7-24,17-48.1,25.7-72c7.2-19.9,15-39.7,22-59.7
		c1.5-4.3,3.5-5.3,7.5-5.2c12.5,0.2,25,0.1,37.5,0.1c8.6,0,8.8,0.2,7.7,9c-2.2,17.6-3,35.4-3.8,53.1c-0.2,4.2-0.8,8.3-1.3,12.4
		c-0.9,7.9-1.5,15.8-0.2,23.7c0,0.6-0.1,1.2-0.1,1.8c-3.1,4.2-2.1,9.2-2.3,13.9c-0.1,2.2-1.2,5.8,1.2,6.3c2,0.4,3.1-3.2,3.9-5.4
		c6.2-16.8,12.3-33.6,18.4-50.5c7.2-20,14.2-40,21.5-60c0.7-1.9,1.4-4.4,4.6-4.4c15,0.1,30,0,45,0c2.3,0,3.3,0.3,2.2,3.2
		c-8.6,22.3-16.2,44.9-24.5,67.2c-8.1,21.9-15.9,43.9-24.2,65.7c-6.9,18.2-13.1,36.7-19.7,55c-5.4,14.9-11,29.6-16.3,44.5
		c-2.4,6.7-2.9,7.2-10,6.4c-2.1-0.2-4.3-0.2-6.5-0.2c-10.8,0-21.7,0-32.5-0.1c-1.7,0-4.4,1-4.1-2.6c1.1-13.4,2.1-26.8,4.1-40
		c0.8-4.8,1.3-9.9,0-14.8c0-0.6,0.1-1.2,0.1-1.8c3.7-5.4,2.5-11.3,1.9-17.2c0.1-0.9,0.1-1.9,0.2-2.8c3.6-5,2.4-10.7,1.9-16.2
		c0.1-1.3,0.1-2.5,0.2-3.8C234.9,139.1,233.8,133.7,233.3,128.4z"/>
	<path fill="#020202" d="M408.2,0.6c9.2,0,18.3,0.1,27.5-0.1c3.9-0.1,4.1,1.4,2.9,4.5c-13.8,37.7-27.5,75.4-41.2,113.1
		c-12.9,35.2-25.8,70.4-38.7,105.6c-2.2,6.1-4.5,12.1-6.5,18.3c-0.8,2.6-2.4,3.4-4.8,3.4c-18.3,0-36.7,0-55,0c-5,0-3.3-3.2-2.5-5.5
		c3.5-10,7.2-20,10.9-29.9c8-22,16.1-43.9,24.1-65.9c9.4-25.7,18.7-51.4,28-77.2c7.3-20.1,14.7-40.2,21.8-60.3
		c1.5-4.4,3.5-6.4,8.5-6.1C391.5,0.9,399.8,0.6,408.2,0.6z"/>
	<path d="M176.6,464.2c1.1-3.5,4.7-2.8,7.1-3.8c28.8-12.8,57.6-25.5,86.6-37.8c27.3-11.5,54.5-23.6,81.7-35.2
		c33.9-14.5,67.7-29.4,101.7-43.8c27.3-11.6,54.4-23.5,81.6-35.2c32.1-13.8,64.3-27.6,96.3-41.6c20.7-9.1,41.5-17.9,62.2-26.7
		c24.4-10.4,48.7-21,73-31.6c30.9-13.5,62-26.6,93.1-39.8c1.2-0.5,2.3-1.2,3.1-3c-4,1-8,2.1-12,3.1c-1.7,0.5-3.3,1.7-5.1,0.3
		c4.7-3.1,10.3-3.3,15.5-4.8c5.9-1.7,11.7-3.4,17.6-5.2c1.6-0.5,3.2-0.8,5.5,0.7c-10.6,4.7-20.8,9.2-31,13.6
		c-21.6,9.3-43.3,18.4-64.8,27.7c-31.8,13.7-63.5,27.5-95.2,41.2c-25.1,10.9-50.1,21.9-75.2,32.7c-27.8,12-55.7,23.8-83.5,35.8
		c-36.5,15.7-72.9,31.6-109.4,47.4c-35.3,15.2-70.6,30.4-105.9,45.6c-43.5,18.8-86.9,37.6-130.5,56.1
		C185.1,461.6,181.4,464.8,176.6,464.2z"/>
	<path d="M624.7,142.4c1.1-2.3,3.2-1.3,4.9-1.3c10.2-0.1,20.3-0.1,30.5,0c3,0,4.5-0.5,5.7-3.9c4.3-12.5,9.2-24.7,13.9-37.1
		c1.1-2.9-0.2-3.9-3.1-3.8c-9.8,0.1-19.7,0.1-29.5,0c-5.6,0-6.4-1.2-4.6-6.6c4.2-12.3,9.3-24.3,13.1-36.7c1-3.2,3.2-5.2,7.4-5
		c11.2,0.4,22.3,0,33.5,0.2c3.7,0.1,5.3-1.5,6.5-4.7c4.3-12.4,8.6-24.8,13.3-37.1c1.5-3.9,0.9-5-3.3-5c-31.5,0.1-63,0.1-94.5,0
		c-3.7,0-4.9,1.7-6.1,5.1c-5.8,16.3-12.5,32.2-18,48.6c-7.5,22.4-16.2,44.3-24,66.5c-7.6,21.9-16.2,43.5-24.2,65.3
		c-6.3,17.3-12.4,34.7-18.7,52.1c-1.3,3.5-0.8,5.1,3.5,5c10.1-0.2,20.3-0.1,31.7-0.1c-8.2,5.7-16.8,6.2-24.7,8.5
		c-11.5,3.5-23.2,6.2-34.9,9.3c-9.9,2.6-19.8,5-29.6,8c-6.1,1.9-12.5,2.7-18.5,5.3c-1.6,0.7-3.5,1.2-5.2,0
		c6.1-3.6,13.1-4.4,19.7-6.3c17.5-5,35.2-9.5,52.8-14.2c9-2.4,18.1-4.7,27.2-7c0-0.5-0.1-0.9-0.1-1.4c-6.9,0-13.7,0-20.6,0
		c-4.9,0-5.6-1.1-3.9-5.6c8.9-24.4,17.6-48.8,26.6-73.2c7.3-19.9,14.8-39.7,22.1-59.6c9.4-25.8,18.5-51.7,27.9-77.6
		c3.2-8.9,6.8-17.6,9.8-26.6c1-2.9,2.6-3.5,5.1-3.5c33.2,0,66.3,0,99.5,0c3.3,0,4.4,0.8,3,4.4c-5.4,14.3-10.3,28.7-15.5,43
		c-0.9,2.6-3,3.2-5.6,3.2c-11.3-0.1-22.7,0.1-34-0.1c-3.6-0.1-5.6,0.6-6.9,4.5c-4,11.9-8.6,23.6-12.9,35.3c-1.2,3.2,0.6,3.6,3.2,3.6
		c10.3-0.1,20.7,0.1,31-0.1c4.3-0.1,5.1,1,3.5,5.3c-4.8,12.3-9,24.9-13.4,37.3c-1.4,3.9-3.1,6.2-8.1,6
		C648.3,142.1,636.5,142.4,624.7,142.4z"/>
	<path d="M266.5,99.8c-1.2-7.9-0.7-15.9,0.2-23.7c0.5-4.1,1.1-8.2,1.3-12.4c0.8-17.7,1.6-35.5,3.8-53.1c1.1-8.8,0.9-9-7.7-9
		c-12.5,0-25,0.1-37.5-0.1c-4,0-6,0.9-7.5,5.2c-7,20-14.8,39.8-22,59.7c-8.7,24-17,48.1-25.7,72c-5.1,14.1-10.7,28-15.9,42.1
		c-4.6,12.5-8.7,25.1-13.1,37.7c-2.4,6.8-5.2,13.5-7.9,20.3c-1.6,4-0.7,5.7,3.3,5.4c13.8-1.1,27.6-0.3,41.4-0.5
		c3.1,0,4.8-0.5,6.1-4.1c7.8-22,16.2-43.9,24.2-65.8c7.3-20.1,14.4-40.4,21.6-60.5c0.2-0.5,0.3-1.1,0.6-1.3c1.2-0.9,0.9-3.5,2.7-3.2
		c2.3,0.4,1.6,2.8,1.3,4.2c-0.6,3.8,1.4,8.1-2.2,11.3c-1.3-2.5,0.5-5.3-1.1-8.4c-3.8,10.3-7.5,20.1-11.1,30
		c-6.5,18-13,36.1-19.6,54.1c-5.2,14.2-10.6,28.2-15.6,42.4c-1.2,3.5-3.1,4.2-6.2,4.2c-14.8-0.1-29.7-0.1-44.5,0
		c-4.2,0-5.1-1.8-3.9-5.2c8.6-23.4,17.4-46.8,26-70.3c8.7-24,17.1-48,25.9-72c7.2-19.9,14.7-39.7,22.1-59.6
		c4.3-11.8,8.7-23.6,12.7-35.5c0.9-2.6,2.1-3.5,4.6-3.5c15.8,0,31.7,0,47.5,0c2.5,0,3.6,1,3.4,3.6c-1.8,31.8-3.9,63.5-6.7,95.2
		C267,99.2,266.7,99.5,266.5,99.8z"/>
	<path d="M227.2,185.8c1.3,4.9,0.7,10,0,14.8c-2.1,13.3-3.1,26.7-4.1,40c-0.3,3.6,2.4,2.6,4.1,2.6c10.8,0.1,21.7,0,32.5,0.1
		c2.2,0,4.3,0,6.5,0.2c7.1,0.7,7.6,0.3,10-6.4c5.3-14.9,11-29.6,16.3-44.5c6.6-18.3,12.8-36.8,19.7-55c8.3-21.8,16.1-43.8,24.2-65.7
		c8.3-22.3,16-44.9,24.5-67.2c1.1-2.9,0.1-3.2-2.2-3.2c-15,0-30,0.1-45,0c-3.2,0-3.9,2.5-4.6,4.4c-7.3,20-14.3,40-21.5,60
		c-6.1,16.9-12.2,33.7-18.4,50.5c-0.8,2.2-2,5.8-3.9,5.4c-2.4-0.5-1.2-4.1-1.2-6.3c0.2-4.7-0.8-9.6,2.3-13.9
		c1.2,3.9-0.4,7.9,0.6,12.7c3.8-6,5.3-12.3,7.5-18.1c10.4-27.9,20.5-55.9,30.7-83.9c0.7-2,1.9-4,2.2-6c0.7-5.5,4-6.3,8.8-6.2
		c14,0.3,28,0.1,42,0.1c5.6,0,6.1,0.5,4.2,5.6c-4.9,13.7-9.9,27.4-14.9,41.1c-7.4,20.3-14.9,40.7-22.3,61
		c-10.1,27.7-20.2,55.3-30.3,83c-5.9,16.3-11.9,32.6-17.6,49c-1.6,4.4-3.7,6.6-8.9,6.5c-14.3-0.4-28.6-0.2-43-0.1
		c-2.8,0-5.2-0.4-4.7-4C223,223.4,223.5,204.4,227.2,185.8z"/>
	<path d="M238.9,331.4c-2.3,4-6.8,2.9-10.1,3.9c-10.9,3.3-22.1,5.7-33.6,6.6c-22.5,1.7-43.9-2-63.9-12.7
		c-18.1-9.7-30.5-24.4-37-43.6c-5.1-14.9-6.5-30.3-3.9-46.1c1.8-10.8,3.7-21.5,7.4-31.9c2.4-6.6,4.8-13.3,7.3-19.9
		c0.5-1.2,1.3-2.3,0.4-3.9c-3.5,2.2-5.4,5.8-7.9,8.8c-19.6,24.5-37.9,49.8-54.1,76.7c-13.4,22.3-25.3,45.3-33.3,70
		c-3.7,11.3-7.3,22.8-7.6,34.9c-0.1,3-0.5,5.9-2,8.6c-1.6-8.6,0.6-17,2.6-25.1c12.6-51.7,40.7-95.4,71.3-137.8
		c10.2-14.2,21.1-27.8,32.1-41.3c1.5-1.9,3.3-3.6,4.9-5.4c1.8,1,1.2,2.2,0.7,3.1c-5.9,12.4-11.1,25.1-14.7,38.4
		c-6.7,24.3-9.3,48.8-0.5,73.1c6.7,18.5,19.7,31.9,37.2,41c17.6,9.1,36.4,11.7,56,11.1c15.6-0.4,30.5-3.9,45.3-8.4
		C236.6,331.1,237.8,330.6,238.9,331.4z"/>
	<path d="M524.4,181.7c-1.1-7.8-0.7-15.6,0.3-23.3c1.7-12.6,1-25.3,1.8-37.9c0.5-7.9,2.7-14.5,7.4-21c20.7-28.7,40.7-57.7,61-86.7
		c1.7-2.4,3.7-4.7,5.3-7.2c1.5-2.3,1.3-4.1-2.1-4.1c-16.7,0-33.3,0-50,0c-2.2,0-3.4,1.4-4.6,3.2c-16,24.4-32.1,48.7-48.3,72.9
		c-0.8,1.2-1,3.4-3.3,3.2c-0.7-2,0.8-3,1.7-4.3c16.2-24.3,32.4-48.5,48.4-72.9c1.7-2.6,3.4-3.7,6.4-3.6c17.1,0.1,34.3,0,51.4,0.1
		c1.5,0,3.4-0.5,4.1,1c0.9,1.8-0.9,2.9-1.8,4.2c-23.4,33.2-46.7,66.5-70.1,99.7c-2.1,2.9-3.1,5.9-3.3,9.6
		c-1.1,21.9-2.6,43.8-3.9,65.7C525,180.9,524.6,181.3,524.4,181.7z"/>
	<path d="M0.5,387.8c1.3,3.4,1.8,7,2.1,10.6c1.7,19,10.2,34.5,24.6,46.7c10.6,9,22.3,16.5,35.4,21.5c6.9,2.6,14.1,4.1,21.3,5.8
		c12.9,3,25.8,1.7,38.8,1.6c11.6-0.1,22.8-2.9,34.1-5.4c6-1.3,11.6-4.3,17.9-4c-2.2,3.1-6,2.9-8.9,3.7c-20.4,5.5-41.2,9.5-62.5,8.4
		c-34.9-1.7-65-14.2-87.8-41.3C4.3,421.9-0.9,405.7,0.5,387.8z"/>
	<path d="M464.3,157.8c1.2,2.4,0.6,4.9,0.3,7.3c-1.7,14.3-3.8,28.6-5.5,42.9c-1.3,10.5-2.2,21.1-3.4,31.7c-0.3,3,0.6,4.2,3.7,4.2
		c19-0.1,37.9-0.1,56.9,0c3,0,3.6-1.3,3.7-3.9c0.1-4.6-0.2-9.2,2-13.5c1.2,5.4,0,10.9,0,16.3c0,2.6-2,3.2-4.1,3.2
		c-20.3,0-40.6,0-60.9,0c-3.5,0-3.7-2-3.5-4.5c0.4-7.6,1.7-15.2,2.6-22.7c2.1-16.8,4.1-33.6,6-50.4
		C462.6,164.8,463,161.3,464.3,157.8z"/>
	<path d="M383.6,196.5c0.3,6.1-3.2,11-4.9,16.4c-2.7,8.5-6.2,16.7-9.3,25.1c-2,5.5-1.8,5.7,4.1,5.7c15.8,0,31.6-0.2,47.4,0.1
		c4.4,0.1,6.2-1.8,7.5-5.5c3.4-10,7.1-19.9,10.6-29.9c0.3-1,0.9-1.8,2-2.1c-0.6,6.8-4.4,12.6-6.1,19.1c-1.5,5.6-3.9,10.9-5.9,16.3
		c-1,2.8-2.6,4.3-5.9,4.2c-17.6-0.1-35.3-0.1-52.9,0c-4,0-4.8-1.8-3.7-4.9c5.3-14.6,10.7-29.2,16.2-43.7
		C382.8,197.2,383.3,196.9,383.6,196.5z"/>
	<path d="M728.1,200.4c-2.2,3.7-6.6,2.8-9.8,3.8c-11.6,3.7-23.6,6.3-35.4,9.4c-11.6,3.1-23.1,6.4-34.6,9.5c-1.6,0.4-3.3,0.5-4.9,0.5
		c-1.6,0-2.5-0.7-1.8-2.5c2.8-7.6,5.5-15.2,8.3-22.8c0.1-0.3,0.9-0.4,1.3-0.6c-1.1,7.2-4.6,13.5-6.7,20.4c-0.3,1.1-1.3,2.2-0.5,3.2
		c1,1.2,2.2,0,3.2-0.3c15-3.9,30.1-7.9,45.1-11.9c11.1-3,22.2-6.1,33.4-9C726.4,200,727.3,200.3,728.1,200.4z"/>
	<path d="M340.1,304.3c-2.5,3.6-6.9,3-10.3,4c-12.9,3.8-26,7.4-39.1,10.7c-11.8,2.9-23.3,6.8-35.2,8.9c-3.3,0.6-6.6,1.9-9.8,3
		c-1.8,0.6-3.5,1.1-5.3,0.3c3.2-3.1,7.6-2.9,11.5-4.1c14.6-4.2,29.4-8,44.1-12c13.7-3.7,27.4-7.4,41.2-11
		C338.1,303.9,339.1,304.3,340.1,304.3z"/>
	<path d="M828.1,173.5c-1.8,3.7-5.9,2.8-8.7,3.7c-14.2,4.3-28.7,7.6-43,11.5c-14.3,3.8-28.5,7.8-42.7,11.7c-1.2,0.3-2.6,0.8-3.8-0.2
		c3.1-3.3,7.6-2.8,11.5-4c14.6-4.3,29.4-7.9,44.1-11.8c13.9-3.7,27.8-7.4,41.7-11.1C827.5,173.1,827.8,173.4,828.1,173.5z"/>
	<path d="M433.1,279.4c-3,3.3-7.5,3.1-11.3,4.2c-16.8,4.7-33.8,9-50.7,13.5c-8.8,2.4-17.6,5-26.5,7.4c-0.9,0.2-2,0.5-2.8-0.4
		c2.8-3.1,6.9-2.8,10.4-3.8c17.9-5.1,36-9.9,54-14.5c7.8-2,15.7-3.8,23.3-6.4C430.8,278.9,432,278.7,433.1,279.4z"/>
	<path d="M441.5,204.7c-0.3-5.1,2.6-9.3,4.1-13.8c5-15,10.8-29.8,16.2-44.6c0.7-2,2.2-3.7,2.2-6c0-0.9,0.7-1.7,1.6-1.5
		c0.5,0.1,1.1,0.9,1.1,1.4c-0.1,5.3,1.2,10.9-2.2,15.8c-1.3-2.3,0.6-4.9-1-7.6c-3.5,5.9-5,12.3-7.3,18.4c-4.5,12-8.7,24.2-13.1,36.2
		C442.9,203.7,442,204.2,441.5,204.7z"/>
	<path d="M606.8,196.1c-2.6-0.9-2.8-1.2-1.7-4.6c2.1-6.2,4.3-12.3,6.6-18.4c3.4-9.1,6.8-18.1,10.2-27.2c0.5-1.5,1-2.8,2.6-3.2
		c-2.2,9.1-6.1,17.7-9.1,26.5c-2.8,8.1-5.9,16.1-8.9,24.1C606.2,194.3,606.2,195.2,606.8,196.1z"/>
	<path d="M522.4,217.7c-0.7-9.8-1.4-19.6,1.8-29.2C525,198.3,524.5,208.1,522.4,217.7z"/>
	<path d="M229.2,166.8c0.5,5.9,1.8,11.8-1.9,17.2C226.6,178.1,227.2,172.4,229.2,166.8z"/>
	<path d="M231.3,147.8c0.5,5.5,1.8,11.1-1.9,16.2C228.8,158.5,228.9,153,231.3,147.8z"/>
	<path d="M233.3,128.4c0.5,5.4,1.6,10.8-1.8,15.7C230.9,138.7,230.8,133.4,233.3,128.4z"/>
	<path d="M448.1,275.3c-3.9,2.9-8.3,4.1-13.2,3.7C438.9,276.3,443.4,275.4,448.1,275.3z"/>
	<path d="M484.9,91.8c-0.1,0.6,0.1,1.5-0.2,1.8c-1,0.9-1.9,3.4-3.2,2.2c-1.7-1.4-0.5-3.2,1.5-4.1C483.6,91.8,484.3,91.8,484.9,91.8z
		"/>
	<path d="M844.1,169.4c-1.4,2.8-3.7,2.7-6.2,1.8C839.7,169.8,841.6,168.6,844.1,169.4z"/>
	<path d="M836.1,171.4c-1.2,2.2-2.9,2.9-5.2,1.7C832.2,171.3,834,170.7,836.1,171.4z"/>
	<path d="M483.2,90c-0.7-1.6-0.5-2.9,1.5-3.4C485.4,88.4,484.7,89.4,483.2,90z"/>
	<path d="M485.6,83.3c-0.9-1.5-0.3-2.2,1.2-2.5C487.3,82,487,82.9,485.6,83.3z"/>
	<path d="M389.1,182.3c0.8,1.4,0.6,2.3-1.2,2.5C387.3,183.5,388.1,182.9,389.1,182.3z"/>
	<path d="M386.4,189.4c0.8,1.3,0.1,2.1-1.1,2.6C384.9,190.8,384.9,189.8,386.4,189.4z"/>
	<path d="M384.9,193.8c1.1,1.4,0.6,2-1,2C383.4,194.7,383.9,194.1,384.9,193.8z"/>
</g>
</svg>
