<?xml version="1.0" encoding="utf-8"?>
<!-- Generator: Adobe Illustrator 18.1.1, SVG Export Plug-In . SVG Version: 6.00 Build 0)  -->
<svg version="1.1" id="Layer_1" xmlns="http://www.w3.org/2000/svg" xmlns:xlink="http://www.w3.org/1999/xlink" x="0px" y="0px"
	 width="200px" height="45px" viewBox="0 0 200 45" enable-background="new 0 0 200 45" xml:space="preserve">
<g>
	<g>
		<path fill="#94A1B5" d="M71.1,26.8h-8.4v4.8c0,0.5-0.4,0.9-0.9,0.9s-0.9-0.4-0.9-0.9V20.9c0-0.5,0.4-0.9,0.9-0.9s0.9,0.4,0.9,0.9
			v4.2h8.4v-4.2c0-0.5,0.4-0.9,0.9-0.9s0.9,0.4,0.9,0.9v10.7c0,0.5-0.4,0.9-0.9,0.9s-0.9-0.4-0.9-0.9C71.1,31.6,71.1,26.8,71.1,26.8
			z"/>
		<path fill="#94A1B5" d="M80.2,31.7c0,0.5-0.4,0.9-0.9,0.9s-0.9-0.4-0.9-0.9V21c0-0.5,0.4-0.9,0.9-0.9s0.9,0.4,0.9,0.9V31.7z"/>
		<path fill="#94A1B5" d="M93.5,27.2c0-0.5,0.4-0.9,0.9-0.9s0.9,0.4,0.9,0.9v2.9c0,0.2-0.1,0.5-0.3,0.7c-1.2,1.2-2.7,1.9-4.5,1.9
			c-3.5,0-6.4-2.8-6.4-6.4c0-3.5,2.8-6.4,6.4-6.4c1.8,0,3.4,0.7,4.5,1.9c0.4,0.4,0.4,0.9,0,1.3c-0.4,0.4-0.9,0.4-1.3,0
			c-0.8-0.8-1.9-1.3-3.2-1.3c-2.5,0-4.6,2-4.6,4.6c0,2.5,2,4.6,4.6,4.6c1.2,0,2.2-0.4,3-1.1V27.2L93.5,27.2z"/>
		<path fill="#94A1B5" d="M110.3,26.8h-8.4v4.8c0,0.5-0.4,0.9-0.9,0.9s-0.9-0.4-0.9-0.9V20.9c0-0.5,0.4-0.9,0.9-0.9s0.9,0.4,0.9,0.9
			v4.2h8.4v-4.2c0-0.5,0.4-0.9,0.9-0.9s0.9,0.4,0.9,0.9v10.7c0,0.5-0.4,0.9-0.9,0.9s-0.9-0.4-0.9-0.9V26.8z"/>
		<path fill="#94A1B5" d="M122.5,32.7c-3.5,0-6.4-2.8-6.4-6.4c0-3.5,2.8-6.4,6.4-6.4c1.8,0,3.4,0.7,4.5,1.9c0.4,0.4,0.4,0.9,0,1.3
			c-0.4,0.4-0.9,0.4-1.3,0c-0.8-0.8-1.9-1.3-3.2-1.3c-2.5,0-4.6,2-4.6,4.6c0,2.5,2,4.6,4.6,4.6c1.3,0,2.4-0.5,3.2-1.3
			c0.4-0.4,0.9-0.4,1.3,0c0.4,0.4,0.4,0.9,0,1.3C125.8,32,124.2,32.7,122.5,32.7z"/>
		<path fill="#94A1B5" d="M141.5,26.8h-8.4v4.8c0,0.5-0.4,0.9-0.9,0.9s-0.9-0.4-0.9-0.9V20.9c0-0.5,0.4-0.9,0.9-0.9s0.9,0.4,0.9,0.9
			v4.2h8.4v-4.2c0-0.5,0.4-0.9,0.9-0.9s0.9,0.4,0.9,0.9v10.7c0,0.5-0.4,0.9-0.9,0.9s-0.9-0.4-0.9-0.9V26.8z"/>
		<path fill="#94A1B5" d="M154.8,20.8L160,31c0.1,0.2,0.2,0.5,0.2,0.8c0,0.5-0.3,0.8-0.8,0.8c-0.4,0-0.7-0.1-1-0.6l-1.6-3.2h-6.7
			l-1.6,3.2c-0.3,0.5-0.6,0.6-1,0.6c-0.5,0-0.8-0.3-0.8-0.8c0-0.3,0.1-0.5,0.2-0.8l5.2-10.2c0.3-0.7,1-0.8,1.3-0.8
			C153.9,20,154.5,20.1,154.8,20.8z M151,27h4.9l-2.4-4.9L151,27z"/>
		<path fill="#94A1B5" d="M170.3,20.1c2.2,0,4,1.6,4,3.8c0,1.9-1.4,3.4-3.2,3.7l3.3,3.5c0.3,0.3,0.4,0.9,0.1,1.2
			c-0.4,0.4-1.1,0.3-1.4-0.1l-4.3-4.5h-3.2v4c0,0.5-0.4,0.9-0.9,0.9s-0.9-0.4-0.9-0.9V21.1c0-0.5,0.4-0.9,0.9-0.9
			C164.6,20.1,170.3,20.1,170.3,20.1z M165.5,21.9V26h4.8c1.3,0,2.1-0.9,2.1-2c0-1.2-0.9-2-2.1-2L165.5,21.9L165.5,21.9z"/>
		<path fill="#94A1B5" d="M182.5,21.9h-4.6c-0.5,0-0.9-0.4-0.9-0.9s0.4-0.9,0.9-0.9h10.9c0.5,0,0.9,0.4,0.9,0.9s-0.4,0.9-0.9,0.9
			h-4.6v9.8c0,0.5-0.4,0.9-0.9,0.9s-0.9-0.4-0.9-0.9L182.5,21.9L182.5,21.9z"/>
		<path fill="#94A1B5" d="M194.2,25c0-4.6,2.8-5.1,4.9-5.1c0.5,0,0.9,0.4,0.9,0.9s-0.4,0.9-0.9,0.9c-1.7,0-3.1,0.4-3.1,3.3v2.5
			c0,4.6-2.8,5.1-4.9,5.1c-0.5,0-0.9-0.4-0.9-0.9s0.4-0.9,0.9-0.9c1.7,0,3.1-0.4,3.1-3.3L194.2,25L194.2,25z"/>
	</g>
	<g>
		<polygon fill="#8087E8" points="29,0 21.1,18.2 10.9,42.2 34.8,32.1 47.4,26.8 		"/>
		<polygon fill="#30426B" points="32.9,22.1 34.8,32.1 47.4,26.8 		"/>
		<polygon fill="#6699A1" points="29,0 32.9,22.1 47.4,26.8 		"/>
		<polygon fill="#78758C" points="32.9,22.1 47.4,26.8 21.1,18.2 10.9,42.2 34.8,32.1 		"/>
		<polygon fill="#A3EDBA" points="10.9,42.2 21.1,18.2 0,11.4 		"/>
		<polygon fill="#6699A1" points="34.8,32.1 37.1,45 47.4,26.8 		"/>
		<polygon fill="#8087E8" points="29,0 21.1,18.2 32.9,22.1 		"/>
	</g>
</g>
</svg>
