<?xml version="1.0" encoding="utf-8"?>
<!-- Generator: Adobe Illustrator 18.1.1, SVG Export Plug-In . SVG Version: 6.00 Build 0)  -->
<svg version="1.1" id="Layer_1" xmlns="http://www.w3.org/2000/svg" xmlns:xlink="http://www.w3.org/1999/xlink" x="0px" y="0px"
	 width="21px" height="13px" viewBox="-131 135.5 21 13" enable-background="new -131 135.5 21 13" xml:space="preserve">
<g enable-background="new    ">
	<path fill="#FFFFFF" d="M-125,145.9l-0.6-1.9h-2.9l-0.6,1.9h-1.8l2.8-7.9h2l2.8,7.9H-125z M-126,142.6c-0.5-1.7-0.8-2.7-0.9-2.9
		c-0.1-0.2-0.1-0.4-0.1-0.5c-0.1,0.5-0.5,1.6-1,3.4H-126z"/>
	<path fill="#FFFFFF" d="M-122.2,138h2.4c1.1,0,1.9,0.2,2.4,0.5c0.5,0.3,0.8,0.8,0.8,1.5c0,0.5-0.1,0.9-0.3,1.2
		c-0.2,0.3-0.5,0.5-0.9,0.5v0.1c0.5,0.1,0.9,0.3,1.1,0.6c0.2,0.3,0.3,0.7,0.3,1.2c0,0.7-0.3,1.3-0.8,1.7s-1.2,0.6-2.1,0.6h-2.9V138z
		 M-120.6,141.1h1c0.5,0,0.8-0.1,1-0.2c0.2-0.1,0.3-0.4,0.3-0.7c0-0.3-0.1-0.5-0.3-0.6c-0.2-0.1-0.6-0.2-1-0.2h-0.9V141.1z
		 M-120.6,142.5v2h1.1c0.5,0,0.8-0.1,1-0.3c0.2-0.2,0.3-0.4,0.3-0.8c0-0.7-0.5-1-1.4-1H-120.6z"/>
	<path fill="#FFFFFF" d="M-110.2,143.7c0,0.7-0.3,1.3-0.8,1.7c-0.5,0.4-1.2,0.6-2.1,0.6c-0.8,0-1.6-0.2-2.2-0.5V144
		c0.5,0.2,1,0.4,1.3,0.5c0.4,0.1,0.7,0.1,1,0.1c0.4,0,0.6-0.1,0.8-0.2c0.2-0.1,0.3-0.3,0.3-0.6c0-0.2,0-0.3-0.1-0.4
		s-0.2-0.2-0.4-0.3c-0.2-0.1-0.5-0.3-1-0.5c-0.5-0.2-0.8-0.4-1.1-0.7c-0.2-0.2-0.4-0.4-0.6-0.7c-0.1-0.3-0.2-0.6-0.2-1
		c0-0.7,0.2-1.2,0.7-1.6c0.5-0.4,1.1-0.6,2-0.6c0.4,0,0.8,0,1.2,0.1c0.4,0.1,0.8,0.2,1.2,0.4l-0.5,1.3c-0.4-0.2-0.8-0.3-1-0.4
		c-0.3-0.1-0.5-0.1-0.8-0.1c-0.3,0-0.6,0.1-0.7,0.2c-0.2,0.1-0.3,0.3-0.3,0.6c0,0.1,0,0.3,0.1,0.4c0.1,0.1,0.2,0.2,0.3,0.3
		c0.1,0.1,0.5,0.3,1.1,0.6c0.7,0.4,1.2,0.7,1.5,1.1C-110.3,142.8-110.2,143.2-110.2,143.7z"/>
</g>
</svg>
