<?xml version="1.0" encoding="utf-8"?>
<!-- Generator: Adobe Illustrator 18.1.1, SVG Export Plug-In . SVG Version: 6.00 Build 0)  -->
<svg version="1.1" id="Layer_1" xmlns="http://www.w3.org/2000/svg" xmlns:xlink="http://www.w3.org/1999/xlink" x="0px" y="0px"
	 width="43px" height="45px" viewBox="0 0 43 45" enable-background="new 0 0 43 45" xml:space="preserve">
<ellipse fill="none" stroke="#E45642" stroke-width="2" stroke-linecap="round" stroke-linejoin="round" stroke-miterlimit="10" cx="21.8" cy="21.8" rx="20.5" ry="20.6"/>
<g>
	<path fill="#E45642" d="M18.6,32.1c0-1,0.3-1.7,0.8-2.2c0.5-0.5,1.3-0.8,2.3-0.8c1,0,1.7,0.3,2.3,0.8c0.5,0.5,0.8,1.3,0.8,2.2
		c0,0.9-0.3,1.7-0.8,2.2c-0.5,0.5-1.3,0.8-2.2,0.8c-1,0-1.7-0.3-2.3-0.8S18.6,33,18.6,32.1z M23.8,26h-4.3L18.6,8.8h6.1L23.8,26z"/>
</g>
</svg>
