<?xml version="1.0" encoding="utf-8"?>
<!-- Generator: Adobe Illustrator 18.1.1, SVG Export Plug-In . SVG Version: 6.00 Build 0)  -->
<svg version="1.1" id="Layer_1" xmlns="http://www.w3.org/2000/svg" xmlns:xlink="http://www.w3.org/1999/xlink" x="0px" y="0px"
	 width="21px" height="8px" viewBox="-262 273.5 21 8" enable-background="new -262 273.5 21 8" xml:space="preserve">
<g enable-background="new    ">
	<path fill="#676c71" d="M-256,281.4l-0.6-1.9h-2.9l-0.6,1.9h-1.8l2.8-7.9h2l2.8,7.9H-256z M-257,278.1c-0.5-1.7-0.8-2.7-0.9-2.9
		s-0.1-0.4-0.1-0.5c-0.1,0.5-0.5,1.6-1,3.4H-257z"/>
	<path fill="#676c71" d="M-253.2,273.5h2.4c1.1,0,1.9,0.2,2.4,0.5s0.8,0.8,0.8,1.5c0,0.5-0.1,0.9-0.3,1.2c-0.2,0.3-0.5,0.5-0.9,0.5
		v0.1c0.5,0.1,0.9,0.3,1.1,0.6c0.2,0.3,0.3,0.7,0.3,1.2c0,0.7-0.3,1.3-0.8,1.7c-0.5,0.4-1.2,0.6-2.1,0.6h-2.9V273.5z M-251.6,276.6
		h1c0.5,0,0.8-0.1,1-0.2c0.2-0.1,0.3-0.4,0.3-0.7s-0.1-0.5-0.3-0.6c-0.2-0.1-0.6-0.2-1-0.2h-0.9v1.7H-251.6z M-251.6,278v2h1.1
		c0.5,0,0.8-0.1,1-0.3c0.2-0.2,0.3-0.4,0.3-0.8c0-0.7-0.5-1-1.4-1h-1V278z"/>
	<path fill="#676c71" d="M-241.2,279.2c0,0.7-0.3,1.3-0.8,1.7s-1.2,0.6-2.1,0.6c-0.8,0-1.6-0.2-2.2-0.5v-1.5c0.5,0.2,1,0.4,1.3,0.5
		c0.4,0.1,0.7,0.1,1,0.1c0.4,0,0.6-0.1,0.8-0.2c0.2-0.1,0.3-0.3,0.3-0.6c0-0.2,0-0.3-0.1-0.4c-0.1-0.1-0.2-0.2-0.4-0.3
		c-0.2-0.1-0.5-0.3-1-0.5s-0.8-0.4-1.1-0.7c-0.2-0.2-0.4-0.4-0.6-0.7c-0.1-0.3-0.2-0.6-0.2-1c0-0.7,0.2-1.2,0.7-1.6s1.1-0.6,2-0.6
		c0.4,0,0.8,0,1.2,0.1c0.4,0.1,0.8,0.2,1.2,0.4l-0.5,1.3c-0.4-0.2-0.8-0.3-1-0.4c-0.3-0.1-0.5-0.1-0.8-0.1s-0.6,0.1-0.7,0.2
		c-0.2,0.1-0.3,0.3-0.3,0.6c0,0.1,0,0.3,0.1,0.4c0.1,0.1,0.2,0.2,0.3,0.3c0.1,0.1,0.5,0.3,1.1,0.6c0.7,0.4,1.2,0.7,1.5,1.1
		C-241.3,278.3-241.2,278.7-241.2,279.2z"/>
</g>
</svg>
