<?xml version="1.0" encoding="utf-8"?>
<!-- Generator: Adobe Illustrator 18.1.1, SVG Export Plug-In . SVG Version: 6.00 Build 0)  -->
<svg version="1.1" id="Layer_1" xmlns="http://www.w3.org/2000/svg" xmlns:xlink="http://www.w3.org/1999/xlink" x="0px" y="0px"
	 width="15px" height="15px" viewBox="0 0 15 15" enable-background="new 0 0 15 15" xml:space="preserve">
<g>
	<g>
		<path fill="#44B3C2" d="M12.3,15H2.7C1.2,15,0,13.8,0,12.3V2.7C0,1.2,1.2,0,2.7,0h9.6C13.8,0,15,1.2,15,2.7v9.6
			C15,13.8,13.8,15,12.3,15z M2.7,1.1c-0.9,0-1.6,0.7-1.6,1.6v9.6c0,0.9,0.7,1.6,1.6,1.6h9.6c0.9,0,1.6-0.7,1.6-1.6V2.7
			c0-0.9-0.7-1.6-1.6-1.6H2.7z"/>
	</g>
	<g>
		<polygon fill="#44B3C2" points="6,11 2.6,7.6 3.4,6.8 6,9.5 11.6,3.9 12.4,4.6 		"/>
	</g>
</g>
</svg>
