<?xml version="1.0" encoding="utf-8"?>
<!-- Generator: Adobe Illustrator 18.1.1, SVG Export Plug-In . SVG Version: 6.00 Build 0)  -->
<svg version="1.1" id="Layer_1" xmlns="http://www.w3.org/2000/svg" xmlns:xlink="http://www.w3.org/1999/xlink" x="0px" y="0px"
	 width="14px" height="18px" viewBox="109 -20 14 18" enable-background="new 109 -20 14 18" xml:space="preserve">
<path fill="#FFFFFF" d="M118.6-17.5v-1.7h-8.7v16.6h12.2v-12.9h-1.5C119.5-15.5,118.6-16.4,118.6-17.5z"/>
<rect x="111" y="-14" fill="#626970" width="10" height="1"/>
<rect x="111" y="-10" fill="#626970" width="10" height="1"/>
<rect x="111" y="-6" fill="#626970" width="10" height="1"/>
<g>
	<path fill="#626970" d="M121.7-16.9l-1.7-1.8l-1.4-1.3h-0.2h-8.2c-0.7,0-1.2,0.4-1.2,1.1v15.8c0,0.8,0.5,1.1,1.2,1.1h11.6
		c0.7,0,1.2-0.4,1.2-1.1v-12.1v-0.2L121.7-16.9z M122-2.9h-12V-19h8v3.2c0,0.5,0.4,0.8,0.8,0.8h3.2V-2.9z"/>
</g>
</svg>
