<?xml version="1.0" encoding="utf-8"?>
<!-- Generator: Adobe Illustrator 18.1.1, SVG Export Plug-In . SVG Version: 6.00 Build 0)  -->
<svg version="1.1" id="Layer_1" xmlns="http://www.w3.org/2000/svg" xmlns:xlink="http://www.w3.org/1999/xlink" x="0px" y="0px"
	 width="20px" height="19px" viewBox="0 0 20 19" enable-background="new 0 0 20 19" xml:space="preserve">
<g id="calendar_5_">
	<g>
		<g>
			<path fill="#94A1B5" d="M17.9,0h-1.5h-0.5H2.1C0.9,0,0,0.7,0,1.8v15.4C0,18.3,0.9,19,2.1,19h13.8h0.5h1.5c1.1,0,2.1-0.7,2.1-1.8
				V1.8C20,0.7,19.1,0,17.9,0z M19,17.2c0,0.6-0.5,0.8-1.1,0.8h-1.5h-0.5H2.1C1.5,18,1,17.7,1,17.2V4h14.9h0.5H19V17.2z"/>
		</g>
	</g>
</g>
<rect x="9" y="6.8" fill="#94A1B5" width="1.5" height="1.5"/>
<rect x="15" y="6.8" fill="#94A1B5" width="1.5" height="1.5"/>
<rect x="9" y="10.8" fill="#94A1B5" width="1.5" height="1.5"/>
<rect x="15" y="10.8" fill="#94A1B5" width="1.5" height="1.5"/>
<rect x="3" y="10.8" fill="#94A1B5" width="1.5" height="1.5"/>
<rect x="9" y="14.8" fill="#94A1B5" width="1.5" height="1.5"/>
<rect x="15" y="14.8" fill="#94A1B5" width="1.5" height="1.5"/>
<rect x="3" y="14.8" fill="#94A1B5" width="1.5" height="1.5"/>
</svg>
