<?xml version="1.0" encoding="utf-8"?>
<!-- Generator: Adobe Illustrator 18.1.1, SVG Export Plug-In . SVG Version: 6.00 Build 0)  -->
<svg version="1.1" id="Layer_1" xmlns="http://www.w3.org/2000/svg" xmlns:xlink="http://www.w3.org/1999/xlink" x="0px" y="0px"
	 width="25px" height="16px" viewBox="3 0 25 16" enable-background="new 3 0 25 16" xml:space="preserve">
<path fill="#676c71" d="M27.9,8.3L27.9,8.3L27.9,8.3L24.2,4c-0.1-0.1-0.2-0.2-0.5-0.2h-3.1V0.9c0-0.4-0.2-0.6-0.6-0.6H4.5
	c-0.4,0-0.6,0.2-0.6,0.6v10.7H3.6l0,0C3.2,11.7,3,11.9,3,12.3c0,0.4,0.2,0.6,0.6,0.6h0.3v0.5c0,0.4,0.2,0.6,0.6,0.6h0.9
	c0.2,1,1.2,1.8,2.3,1.8c1.1,0,2-0.7,2.3-1.8h11.4c0.2,1,1.2,1.8,2.3,1.8s2-0.7,2.3-1.8h1.5c0.4,0,0.6-0.2,0.6-0.6V8.6
	C28,8.5,27.9,8.4,27.9,8.3z M24.3,8V5.9L26.2,8H24.3z M23.7,9.3h3.1v3.6h-0.9l0,0c-0.2-1.1-1.2-1.9-2.3-1.9c-1.1,0-2,0.7-2.3,1.8
	h-0.7V5h2.5v3.7C23.1,9,23.4,9.3,23.7,9.3z M23.6,12.1c0.6,0,1.2,0.5,1.2,1.2c0,0.8-0.6,1.2-1.2,1.2c-0.6,0-1.2-0.5-1.2-1.2
	S23,12.1,23.6,12.1z M19.5,10.6v2.2H9.9c-0.2-1-1.2-1.8-2.3-1.8s-2,0.7-2.3,1.8H5.1v-2.2H19.5z M7.7,12.1c0.6,0,1.2,0.6,1.2,1.2
	c0,0.8-0.6,1.2-1.2,1.2c-0.6,0-1.2-0.5-1.2-1.2S7,12.1,7.7,12.1z M19.5,1.6v7.8H5.1V1.6H19.5z"/>
</svg>
