<?xml version="1.0" encoding="utf-8"?>
<!-- Generator: Adobe Illustrator 18.1.1, SVG Export Plug-In . SVG Version: 6.00 Build 0)  -->
<svg version="1.1" id="Layer_1" xmlns="http://www.w3.org/2000/svg" xmlns:xlink="http://www.w3.org/1999/xlink" x="0px" y="0px"
	 width="14px" height="15px" viewBox="0 0 14 15" enable-background="new 0 0 14 15" xml:space="preserve">
<path fill="#FFFFFF" d="M12.7,3.1L11,1.3L9.6,0H9.4H4C3.4,0,3,0.4,3,1.1V2H1.2C0.5,2,0,2.4,0,3.1v10.7C0,14.6,0.5,15,1.2,15h9.6
	c0.7,0,1.2-0.4,1.2-1.1V13h0.8c0.7,0,1.2-0.9,1.2-1.6V4.8V4.6L12.7,3.1z M11,14H1V3h6v3.2C7,6.6,7.4,7,7.8,7H11V14z M13,12h-1V6.8
	V6.6l-1.3-1.4L9,3.3L7.6,2H7.4H4V1h5l4,4V12z"/>
</svg>
