<?xml version="1.0" encoding="utf-8"?>
<!-- Generator: Adobe Illustrator 18.1.1, SVG Export Plug-In . SVG Version: 6.00 Build 0)  -->
<svg version="1.1" id="Layer_1" xmlns="http://www.w3.org/2000/svg" xmlns:xlink="http://www.w3.org/1999/xlink" x="0px" y="0px"
	 width="25px" height="24px" viewBox="0 0 25 24" enable-background="new 0 0 25 24" xml:space="preserve">
<g>
	<path fill="#44B3C2" d="M8.3,5.6L5.7,8.2l0.8,0.8L10.4,5L6.5,1.1L5.7,1.9l2.6,2.6H5.6c-2.5,0-4.5-2-4.5-4.5H0
		c0,3.1,2.5,5.6,5.6,5.6H8.3z"/>
	<path fill="#44B3C2" d="M24.5,5.3l-4.9-4.8C19.4,0.2,18.9,0,18.5,0h-5.9v1.1h5.8v4.8c0,0.3,0.2,0.6,0.6,0.6h4.9v15.4
		c0,0.6-0.5,1.1-1.1,1.1H7c-0.6,0-1.1-0.5-1.1-1.1V11.1H4.8v10.8C4.8,23,5.8,24,7,24h15.9c1.2,0,2.2-1,2.2-2.2V6.4
		C25,6,24.8,5.6,24.5,5.3z M19.5,1.9L23,5.4h-3.5V1.9z"/>
	<path fill="#44B3C2" d="M18.6,19.9c-0.4,0-0.8-0.1-1.1-0.3l-0.2,0.8c0.2,0.1,0.7,0.3,1.2,0.3c1.2,0,1.8-0.6,1.8-1.4
		c0-0.6-0.4-1-1.1-1.3c-0.6-0.2-0.8-0.3-0.8-0.6c0-0.2,0.2-0.4,0.6-0.4c0.4,0,0.7,0.1,0.9,0.2l0.2-0.8c-0.3-0.1-0.6-0.2-1.1-0.2
		c-1,0-1.7,0.6-1.7,1.3c0,0.6,0.5,1,1.2,1.3c0.5,0.2,0.7,0.3,0.7,0.6C19.3,19.7,19,19.9,18.6,19.9z"/>
	<path fill="#44B3C2" d="M13.6,20.7l-1.3-2.2l1.2-2.1h-1.1L12,17.1c-0.1,0.3-0.2,0.4-0.3,0.7h0c-0.1-0.2-0.2-0.5-0.3-0.7L11,16.3
		H9.9l1.2,2.2l-1.3,2.2h1.1l0.4-0.8c0.1-0.3,0.2-0.5,0.3-0.8h0c0.1,0.3,0.2,0.5,0.4,0.8l0.4,0.8v0H13.6z"/>
	<polygon fill="#44B3C2" points="14.1,16.3 14.1,20.7 16.9,20.7 16.9,19.9 15.1,19.9 15.1,16.3 	"/>
	<rect x="7.8" y="12.5" fill="#44B3C2" width="14.1" height="1.1"/>
</g>
</svg>
