<?xml version="1.0" encoding="utf-8"?>
<!-- Generator: Adobe Illustrator 18.1.1, SVG Export Plug-In . SVG Version: 6.00 Build 0)  -->
<svg version="1.1" id="Layer_1" xmlns="http://www.w3.org/2000/svg" xmlns:xlink="http://www.w3.org/1999/xlink" x="0px" y="0px"
	 width="15px" height="15px" viewBox="0 0 15 15" enable-background="new 0 0 15 15" xml:space="preserve">
<g>
	<polygon fill="#FFFFFF" points="12.4,3.8 7.2,9 4.5,6.2 3.7,7 7.2,10.7 13,4.9 13.8,4 15,2.8 14.2,2 13.2,3 	"/>
	<g>
		<path fill="#FFFFFF" d="M7.2,13.8c-3.4,0-6.1-2.8-6.1-6.3s2.7-6.3,6.1-6.3c1.3,0,2.5,0.4,3.5,1.1l0.1-0.1l0.8-0.8
			C10.3,0.5,8.8,0,7.2,0C3.2,0,0,3.4,0,7.5S3.2,15,7.2,15s7.2-3.4,7.2-7.5c0-0.3,0-0.6-0.1-0.8l-1.1,1.1
			C13.2,11.1,10.5,13.8,7.2,13.8z"/>
	</g>
</g>
</svg>
