<?xml version="1.0" encoding="utf-8"?>
<!-- Generator: Adobe Illustrator 18.1.1, SVG Export Plug-In . SVG Version: 6.00 Build 0)  -->
<svg version="1.1" id="Layer_1" xmlns="http://www.w3.org/2000/svg" xmlns:xlink="http://www.w3.org/1999/xlink" x="0px" y="0px"
	 width="32px" height="32px" viewBox="0 0 32 32" enable-background="new 0 0 32 32" xml:space="preserve">
<path fill="#FFFFFF" d="M17.2,0.1C17.1,0.1,17,0,16.9,0s-0.1,0-0.2,0c-0.2,0-0.5,0-0.7,0C7.2,0,0,7.2,0,16s7.2,16,16,16
	s16-7.2,16-16C32,7.6,25.5,0.7,17.2,0.1z M28.6,12.1c-0.1-0.1-0.2-0.1-0.3-0.2c-0.6-0.4-1.5-1.1-2.9-1.9c-0.2-0.1-0.5-0.1-0.7-0.1
	c-0.4-0.1-0.8,0-1.1,0.2c-0.1,0.1-2.7,2-2.1,6.5c0.4,2.7-2.8,6.9-4.7,8.4c0.3-2.1-1-4-1.9-5.4c-0.1-0.2-0.2-0.4-0.4-0.7
	c8.3-4,7.6-9.8,7.6-10.1V8.7c0-0.1-0.1-0.2-0.1-0.3c0-0.1-0.1-0.2-0.1-0.2c0-0.1-0.1-0.1-0.2-0.2c-0.1,0-0.2-0.1-0.2-0.1l-0.1-0.1
	c-0.4-0.2-0.6-0.3-0.7-0.4c-0.5-0.4-0.8-0.5-1.9-0.9C18.6,6,18.4,4.6,18.4,3C23.2,3.9,27.2,7.5,28.6,12.1z M6.3,7.1
	c0.8,1.3,2.1,3.6,2.3,6c0.1,1.4-0.4,1.5-1.5,2c-0.8,0.3-2.5,1-2.2,2.7c-0.1,0.3-0.9,0.6-1.8,0.9c-0.2-0.9-0.3-1.8-0.3-2.7
	C2.9,12.6,4.2,9.5,6.3,7.1z M16,29.2c-5.4,0-10-3.2-12-7.8c2-0.6,3.8-1.8,3.7-3.5c0.1,0,0.3-0.1,0.4-0.1c1.2-0.4,3.6-1.3,3.3-4.8
	c-0.3-3.2-2-6.2-2.9-7.7c2-1.4,4.4-2.3,7-2.4c0.2,5.6,1.5,6,2.1,6.2c1.1,0.4,1.2,0.4,1.5,0.6l0.1,0.1c-0.1,1.3-1,4.4-6.5,6.9
	c-0.6,0.3-1,0.7-1.1,1.3c-0.3,1.1,0.3,2.1,1.1,3.2c0.7,1.1,1.7,2.5,1.4,3.7c-0.3,1.5-0.1,2.6,0.7,3.2c0.3,0.2,0.7,0.4,1.2,0.4
	s1.1-0.2,1.8-0.6c2.6-1.6,7.2-7.3,6.6-11.6c-0.3-1.7,0.1-2.8,0.4-3.4c0.9,0.5,1.4,1,1.9,1.3c0.9,0.6,1.5,1,2.1,1c0.1,0,0.2,0,0.3,0
	c0,0.3,0,0.6,0,0.9C29.2,23.3,23.3,29.2,16,29.2z"/>
</svg>
