<?xml version="1.0" encoding="utf-8"?>
<!-- Generator: Adobe Illustrator 18.1.1, SVG Export Plug-In . SVG Version: 6.00 Build 0)  -->
<svg version="1.1" id="Layer_1" xmlns="http://www.w3.org/2000/svg" xmlns:xlink="http://www.w3.org/1999/xlink" x="0px" y="0px"
	 width="16px" height="13px" viewBox="0 0 16 13" enable-background="new 0 0 16 13" xml:space="preserve">
<path fill="#676c71" d="M13.5,0.6c0-0.2-0.1-0.3-0.3-0.5C13.1,0,13,0,12.8,0L9.6,0.4C9.2,0.5,8.9,0.8,9,1.2c0,0.4,0.4,0.6,0.8,0.6
	l1.5-0.2L3.6,11.8c-0.2,0.2-0.2,0.5-0.1,0.7C3.6,12.8,3.9,13,4.2,13c0.2,0,0.5-0.1,0.6-0.3l7.6-10.1l0.2,1.3c0,0.3,0.3,0.6,0.7,0.6
	c0,0,0.1,0,0.1,0c0.4,0,0.6-0.4,0.6-0.8L13.5,0.6z"/>
<path fill="#676c71" d="M3.2,3.5c0.9,0,1.6,0.7,1.6,1.6S4.1,6.7,3.2,6.7S1.6,6,1.6,5.1S2.3,3.5,3.2,3.5 M3.2,1.9
	c-1.7,0-3.1,1.4-3.1,3.2s1.4,3.2,3.1,3.2s3.1-1.4,3.1-3.2S5,1.9,3.2,1.9L3.2,1.9z"/>
<path fill="#676c71" d="M12.8,8.2c0.9,0,1.6,0.7,1.6,1.6s-0.7,1.6-1.6,1.6s-1.6-0.7-1.6-1.6S11.9,8.2,12.8,8.2 M12.8,6.6
	C11,6.6,9.6,8,9.6,9.8c0,1.7,1.4,3.2,3.1,3.2c1.7,0,3.1-1.4,3.1-3.2C15.9,8,14.5,6.6,12.8,6.6L12.8,6.6z"/>
</svg>
