<?xml version="1.0" encoding="utf-8"?>
<!-- Generator: Adobe Illustrator 18.1.1, SVG Export Plug-In . SVG Version: 6.00 Build 0)  -->
<svg version="1.1" id="Layer_1" xmlns="http://www.w3.org/2000/svg" xmlns:xlink="http://www.w3.org/1999/xlink" x="0px" y="0px"
	 width="26px" height="26px" viewBox="0 0 26 26" enable-background="new 0 0 26 26" xml:space="preserve">
<path fill="#D8E0EE" d="M22.2,3.8C19.7,1.4,16.5,0,13,0S6.3,1.4,3.8,3.8C1.4,6.3,0,9.5,0,13c0,3.5,1.4,6.7,3.8,9.2
	C6.3,24.6,9.5,26,13,26s6.7-1.4,9.2-3.8c2.5-2.5,3.8-5.7,3.8-9.2C26,9.5,24.6,6.3,22.2,3.8z M19.1,5.6l0.6-2.4
	c2.3,1.6,4,3.9,4.7,6.6l-0.3,0.1c-0.4,0.1-0.8,0.4-0.9,0.9l-0.1,0.5c0,0,0,0,0,0s0,0,0,0l-0.7-0.5c-0.4-0.3-0.8-0.3-1.2-0.1L20.2,11
	c-0.4,0.2-0.7,0.6-0.6,1.1c0,0.5,0.3,0.9,0.8,1l0,0c0,0,0,0,0,0c0,0,0,0,0,0l-0.5,0.6c0,0,0,0,0,0l-1.5-0.9
	c-0.3-0.2-0.7-0.2-1.1-0.1c-0.4,0.2-0.6,0.5-0.7,0.9l-0.1,0.7c-0.1,0.4,0.1,0.8,0.4,1l0.8,0.7c0,0,0,0,0,0L16.4,18
	c-0.1,0.2-0.2,0.4-0.2,0.6l-0.1,2.7c0,0,0,0,0,0l-1.6,1.6c0,0,0,0,0,0l-1.1-0.6c0,0,0,0,0,0c0,0-0.5-2.3-0.5-2.4l-0.5-1.3
	c-0.2-0.4-0.5-0.7-1-0.8l-2.2-0.2c0,0,0,0,0,0l-1.2-2.1c0,0,0,0,0,0l0.3-2c0,0,0,0,0,0l1.9-1.4c0,0,0,0,0,0l1.8,0.8
	c0.1,0,0.2,0.1,0.3,0.1l2.5,0.3c0.3,0,0.6,0,0.8-0.2l1.7-1.2c0.5-0.3,0.6-0.9,0.4-1.4L17.5,10c-0.2-0.4-0.6-0.7-1-0.7l-4.7-0.3
	c0,0,0,0,0,0c0,0,0,0,0,0l0,0c0,0,0,0,0,0c0,0,0,0,0,0l1.4-0.4c0.2-0.1,0.4-0.1,0.5-0.3l1.7-1.6c0,0,0,0,0,0l2.6-0.3
	C18.6,6.4,19,6.1,19.1,5.6z M10.3,4.6l1-1.8c0.1-0.3,0.2-0.6,0.1-0.9l-0.1-0.6c0.6-0.1,1.1-0.1,1.7-0.1c0.6,0,1.2,0,1.7,0.1
	c0,0-0.1,0.2-0.2,0.2L13.2,2c-0.2,0.1-0.4,0.2-0.5,0.4l-2.1,2.5c0,0-0.1,0.1-0.1,0.1c-0.1,0-0.1,0-0.1-0.1
	C10.2,4.8,10.3,4.6,10.3,4.6z M5.3,4v1.7C5.3,6.3,5,6.7,4.6,7L3.4,7.8C3.1,8,2.8,8.2,2.6,8.5l-1.1,1.7C2.1,7.7,3.4,5.6,5.3,4z
	 M6,21.1l-0.2,1.3c-1.9-1.4-3.3-3.3-4-5.6h0.7c0.1,0,0.2,0,0.2,0.1l1.5,2.3c0.1,0.1,0.1,0.2,0.2,0.3l1.4,1.3C6,20.9,6,21,6,21.1z"/>
</svg>
