<?xml version="1.0" encoding="utf-8"?>
<!-- Generator: Adobe Illustrator 18.1.1, SVG Export Plug-In . SVG Version: 6.00 Build 0)  -->
<svg version="1.1" id="Capa_1" xmlns="http://www.w3.org/2000/svg" xmlns:xlink="http://www.w3.org/1999/xlink" x="0px" y="0px"
	 width="13px" height="14px" viewBox="216.5 173 13 14" enable-background="new 216.5 173 13 14" xml:space="preserve">
<g>
	<path fill="#96999b" d="M228.8,184.7c-1.6-1.3-3.2-2.1-3.7-2.3c-0.3-0.1-0.4-0.4-0.4-0.7v-1.3l0.1-0.2c0.2-0.3,0.3-0.7,0.4-1.1
		l0.1-0.6l0.3,0c0-0.1,0.1-0.3,0.2-0.5c0.1-0.4,0.1-0.5,0.1-0.6l0,0l0,0l-0.3-0.1l0.1-0.5c0.4-1.9-0.1-2.4-0.3-2.5l-0.4,0l-0.1-0.4
		c0-0.1-0.2-0.3-0.6-0.5l0,0c-0.3-0.2-0.7-0.3-1.1-0.3c0,0-0.1,0-0.1,0l0,0l0,0c0,0-0.1,0-0.1,0c-0.4,0-0.8,0.1-1.1,0.3l0,0
		c-0.4,0.2-0.6,0.5-0.6,0.5l-0.2,0.4l-0.3,0c-0.2,0.1-0.7,0.6-0.3,2.5l0.1,0.5l-0.3,0.1l0,0l0,0c0,0.1,0,0.2,0.1,0.6
		c0.1,0.3,0.1,0.5,0.2,0.6l0.3,0l0.1,0.6c0.1,0.4,0.2,0.8,0.4,1.1l0.1,0.2v1.3c0,0.3-0.2,0.6-0.4,0.7c-0.5,0.2-2.1,1.1-3.7,2.3
		c-0.4,0.3-0.7,0.8-0.7,1.4l0,0l0,0v0.9h13v-0.9c0,0,0,0,0,0C229.5,185.5,229.3,185,228.8,184.7z"/>
</g>
</svg>
