<?xml version="1.0" encoding="utf-8"?>
<!-- Generator: Adobe Illustrator 18.1.1, SVG Export Plug-In . SVG Version: 6.00 Build 0)  -->
<svg version="1.1" id="Layer_1" xmlns="http://www.w3.org/2000/svg" xmlns:xlink="http://www.w3.org/1999/xlink" x="0px" y="0px"
	 width="13px" height="19px" viewBox="0 0 13 19" enable-background="new 0 0 13 19" xml:space="preserve">
<g>
	<g>
		<path fill="#626970" d="M10.5,8.5h-1v-4c0-1.6-1.1-3-2.6-3H6.1c-1.5,0-2.6,1.4-2.6,3v4h-1v-4c0-2.2,1.5-4,3.6-4h0.9
			c2,0,3.6,1.8,3.6,4V8.5z"/>
	</g>
	<g>
		<g>
			<path fill="#626970" d="M0.5,8.7V18c0,0.4-0.1,0.5,0.3,0.5h11.5c0.4,0,0.3-0.1,0.3-0.5V8.7c0-0.4,0.1-1.2-0.3-1.2H0.8
				C0.4,7.5,0.5,8.3,0.5,8.7z M7.5,14.1v0.8c0,0.5-0.4,0.9-1,0.9s-1-0.4-1-0.9v-0.8l-0.6-1.5c0-0.5,0.4-1.1,1-1.1h1.2
				c0.6,0,1,0.6,1,1.1L7.5,14.1z"/>
		</g>
	</g>
</g>
</svg>
