<?xml version="1.0" encoding="utf-8"?>
<!-- Generator: Adobe Illustrator 18.1.1, SVG Export Plug-In . SVG Version: 6.00 Build 0)  -->
<svg version="1.1" id="Layer_1" xmlns="http://www.w3.org/2000/svg" xmlns:xlink="http://www.w3.org/1999/xlink" x="0px" y="0px"
	 width="15px" height="17px" viewBox="0 0 15 17" enable-background="new 0 0 15 17" xml:space="preserve">
<g>
	<path fill="#91969B" d="M13.4,1.9c0.3,0,0.6,0.3,0.6,0.6v13c0,0.3-0.3,0.6-0.6,0.6H1.6C1.3,16,1,15.7,1,15.4v-13
		c0-0.3,0.3-0.6,0.6-0.6H13.4 M13.4,0.9H1.6C0.7,0.9,0,1.6,0,2.4v13C0,16.3,0.7,17,1.6,17h11.9c0.9,0,1.6-0.7,1.6-1.6v-13
		C15,1.6,14.3,0.9,13.4,0.9L13.4,0.9z"/>
</g>
<g>
	<path fill="#91969B" d="M11.3,0H3.7C3.3,0,2.9,0.4,2.9,0.8c0,0.5,0.4,0.8,0.8,0.8h7.6c0.5,0,0.8-0.4,0.8-0.8
		C12.1,0.4,11.7,0,11.3,0L11.3,0z"/>
</g>
<line fill="none" stroke="#91969B" stroke-width="2" stroke-linecap="round" stroke-linejoin="round" stroke-miterlimit="10" x1="3.2" y1="9.1" x2="11.8" y2="9.1"/>
<line fill="none" stroke="#91969B" stroke-width="2" stroke-linecap="round" stroke-linejoin="round" stroke-miterlimit="10" x1="3.2" y1="5" x2="11.8" y2="5"/>
<line fill="none" stroke="#91969B" stroke-width="2" stroke-linecap="round" stroke-linejoin="round" stroke-miterlimit="10" x1="3.2" y1="13.2" x2="11.8" y2="13.2"/>
</svg>
