<?xml version="1.0" encoding="utf-8"?>
<!-- Generator: Adobe Illustrator 18.1.1, SVG Export Plug-In . SVG Version: 6.00 Build 0)  -->
<svg version="1.1" id="Layer_1" xmlns="http://www.w3.org/2000/svg" xmlns:xlink="http://www.w3.org/1999/xlink" x="0px" y="0px"
	 width="33px" height="33px" viewBox="0 0 33 33" enable-background="new 0 0 33 33" xml:space="preserve">
<path fill="#ffffff" d="M29.1,7.6V2.4c0-0.9-0.4-1.6-1.1-2.1c-0.6-0.4-1.5-0.4-2.1,0c-4.7,2.9-9.7,4.6-15,5.1c-0.2,0-4.9,0-4.9,0
	c-1.3,0-2.5,1-2.8,2.4H2.6C1.1,7.8,0,9.1,0,10.6v4.9c0,1.6,1.1,2.9,2.6,2.9h0.5c0.2,0.8,0.7,1.5,1.3,1.9l0.2,10.9l0,0.2
	C5,32.4,5.8,33,6.7,33h3.6c0.7,0,1.3-0.4,1.7-1c0.1-0.2,0.4-0.6,0.6-11c4.7,0.6,9.2,2.3,13.4,4.9c0.7,0.4,1.5,0.4,2.1,0
	c0.7-0.4,1.1-1.2,1.1-2.1v-5.2c2.3-0.6,3.9-2.9,3.9-5.5C33,10.5,31.4,8.2,29.1,7.6z M30.3,13.1c0,1-0.5,1.9-1.2,2.3v-4.6
	C29.8,11.2,30.3,12.1,30.3,13.1z M26.4,3.4v19.4c-4.4-2.6-9.2-4.3-14.2-4.8V8.2C17.3,7.6,22,6,26.4,3.4z M9.8,20.8L9.7,30H7.2l0-9.2
	H9.8z M9.6,17.8c-1.1,0-3.6,0-3.8,0c-0.1-0.1-0.2-0.2-0.2-0.3V8.7c0-0.2,0.1-0.3,0.3-0.3h3.6V17.8z"/>
</svg>
