<?xml version="1.0" encoding="utf-8"?>
<!-- Generator: Adobe Illustrator 18.1.1, SVG Export Plug-In . SVG Version: 6.00 Build 0)  -->
<svg version="1.1" id="Layer_1" xmlns="http://www.w3.org/2000/svg" xmlns:xlink="http://www.w3.org/1999/xlink" x="0px" y="0px"
	 width="16px" height="17px" viewBox="-311 192.5 16 17" enable-background="new -311 192.5 16 17" xml:space="preserve">
<g>
	<g>
		<path fill="#626970" d="M-303,209.4c0.8,0,1.4-1.3,1.4-1.3h-2.8C-304.4,208.1-303.8,209.4-303,209.4z"/>
		<path fill="#626970" d="M-295.5,206.1c-1.8-1.1-3-2.7-3-5.2v-3c-0.2-1.9-1.5-3.3-3.5-3.5v-0.9c0-0.5-0.5-0.9-1-0.9s-1,0.4-1,0.9
			v0.9c-2,0.2-3.3,1.6-3.5,3.4v3c0,2.5-1.2,4.2-3,5.2c-0.3,0.2-0.5,0.3-0.5,0.6c0,0.4,0.3,0.5,0.7,0.5h14.7c0.4,0,0.7-0.2,0.7-0.5
			C-295,206.3-295.2,206.1-295.5,206.1z"/>
	</g>
</g>
</svg>
