<?xml version="1.0" encoding="utf-8"?>
<!-- Generator: Adobe Illustrator 18.1.1, SVG Export Plug-In . SVG Version: 6.00 Build 0)  -->
<svg version="1.1" id="Layer_1" xmlns="http://www.w3.org/2000/svg" xmlns:xlink="http://www.w3.org/1999/xlink" x="0px" y="0px"
	 width="16px" height="27px" viewBox="0 0 16 27" enable-background="new 0 0 16 27" xml:space="preserve">
<g>
	<g>
		<path fill="#FFFFFF" d="M8,6.3c3.9,0,7,3.3,7,7.4c0,2.8-1.5,5.3-3.9,6.6l-0.5,0.3v0.6v3.6c0,0.7-0.5,1.3-1.2,1.3H6.8
			c-0.7,0-1.2-0.6-1.2-1.3v-3.5v-0.6l-0.6-0.3C2.6,19.1,1,16.5,1,13.6C1,9.6,4.1,6.3,8,6.3 M8,5.2c-4.4,0-8,3.8-8,8.4
			c0,3.4,1.9,6.3,4.6,7.6v3.5c0,1.3,1,2.3,2.2,2.3h2.6c1.2,0,2.2-1,2.2-2.3v-3.6c2.6-1.4,4.4-4.2,4.4-7.5C16,9,12.4,5.2,8,5.2L8,5.2
			z"/>
	</g>
	<g>
		<path fill="#FFFFFF" d="M7.9,3.7c-0.3,0-0.5-0.2-0.5-0.5V0.5C7.4,0.2,7.6,0,7.9,0s0.5,0.2,0.5,0.5v2.7C8.4,3.5,8.2,3.7,7.9,3.7z"
			/>
	</g>
	<g>
		<path fill="#FFFFFF" d="M2.4,5.1C2.3,5.1,2.2,5,2.1,4.9l-1.9-2C0,2.7,0,2.4,0.2,2.2C0.4,2,0.7,2,0.9,2.2l1.9,2
			C3,4.4,3,4.7,2.8,4.9C2.7,5,2.5,5.1,2.4,5.1z"/>
	</g>
	<g>
		<path fill="#FFFFFF" d="M13.3,5.1c-0.1,0-0.3,0-0.3-0.1c-0.2-0.2-0.2-0.5,0-0.7l1.9-2c0.2-0.2,0.5-0.2,0.7,0
			c0.2,0.2,0.2,0.5,0,0.7l-1.9,2C13.6,5,13.5,5.1,13.3,5.1z"/>
	</g>
	<g>
		<path fill="#FFFFFF" d="M9,22.5H7c-0.3,0-0.5-0.2-0.5-0.5s0.2-0.5,0.5-0.5h2c0.3,0,0.5,0.2,0.5,0.5S9.3,22.5,9,22.5z"/>
	</g>
	<g>
		<path fill="#FFFFFF" d="M9,24.5H7c-0.3,0-0.5-0.2-0.5-0.5s0.2-0.5,0.5-0.5h2c0.3,0,0.5,0.2,0.5,0.5S9.3,24.5,9,24.5z"/>
	</g>
</g>
</svg>
