<?xml version="1.0" encoding="utf-8"?>
<!-- Generator: Adobe Illustrator 18.1.1, SVG Export Plug-In . SVG Version: 6.00 Build 0)  -->
<svg version="1.1" id="Layer_1" xmlns="http://www.w3.org/2000/svg" xmlns:xlink="http://www.w3.org/1999/xlink" x="0px" y="0px"
	 width="16px" height="16px" viewBox="0 0 16 16" enable-background="new 0 0 16 16" xml:space="preserve">
<g>
	<path fill="#676c71" d="M8.7,3.8l3.5,0.4l0.4,3.5L6,14.3l-3.9-3.9L8.7,3.8 M8.5,2.3c-0.1,0-0.2,0-0.3,0.1c-0.1,0-0.2,0.1-0.3,0.2
		L0.6,9.8c-0.3,0.3-0.3,0.9,0.1,1.2l4.7,4.7C5.6,15.9,5.8,16,6.1,16c0.2,0,0.4-0.1,0.6-0.2l7.2-7.2C13.9,8.4,14,8.3,14,8.2
		c0.1-0.1,0.1-0.3,0.1-0.4l-0.5-4.2c0-0.4-0.4-0.8-0.8-0.8L8.5,2.3C8.6,2.3,8.5,2.3,8.5,2.3L8.5,2.3z"/>
</g>
<g>
	<path fill="#676c71" d="M10,7.3C9.6,7.3,9.2,7,9.2,6.6C9.1,4.7,10.1,0.8,14.8,0c0.4-0.1,0.8,0.2,0.9,0.6C15.7,1,15.4,1.4,15,1.5
		c-4.5,0.8-4.3,4.9-4.3,5.1C10.7,6.9,10.4,7.3,10,7.3C10,7.3,10,7.3,10,7.3z"/>
</g>
</svg>
