<?xml version="1.0" encoding="utf-8"?>
<!-- Generator: Adobe Illustrator 18.1.1, SVG Export Plug-In . SVG Version: 6.00 Build 0)  -->
<svg version="1.1" id="Capa_1" xmlns="http://www.w3.org/2000/svg" xmlns:xlink="http://www.w3.org/1999/xlink" x="0px" y="0px"
	 width="12px" height="16px" viewBox="408 174 12 16" enable-background="new 408 174 12 16" xml:space="preserve">
<g>
	<path fill="#96999b" d="M419.2,180.9h-0.5v-2.3c0-2.5-2.1-4.6-4.6-4.6c-2.5,0-4.6,2.1-4.6,4.6v2.3h-0.6c-0.5,0-0.8,0.4-0.8,0.8v7.4
		c0,0.5,0.4,0.8,0.8,0.8h10.3c0.5,0,0.8-0.4,0.8-0.8v-7.4C420,181.3,419.6,180.9,419.2,180.9z M415,187.1c0,0.3-0.2,0.7-0.5,0.8
		c-0.1,0.1-0.3,0.1-0.4,0.1c-0.5,0-0.9-0.4-0.9-0.9c0-0.3,0-0.6,0-1c-0.4-0.4-0.5-1-0.3-1.5c0.2-0.5,0.7-0.8,1.2-0.8
		c0.1,0,0.2,0,0.2,0c0.6,0.1,1.1,0.7,1.1,1.3c0,0.4-0.1,0.7-0.4,1C415,186.4,415,186.7,415,187.1z M417.4,180.9h-6.7v-2.3
		c0-1.9,1.5-3.4,3.4-3.4c1.9,0,3.4,1.5,3.4,3.4V180.9z"/>
</g>
</svg>
