<?xml version="1.0" encoding="utf-8"?>
<!-- Generator: Adobe Illustrator 18.1.1, SVG Export Plug-In . SVG Version: 6.00 Build 0)  -->
<svg version="1.1" id="Layer_1" xmlns="http://www.w3.org/2000/svg" xmlns:xlink="http://www.w3.org/1999/xlink" x="0px" y="0px"
	 width="31px" height="24px" viewBox="0 0 31 24" enable-background="new 0 0 31 24" xml:space="preserve">
<g>
	<rect x="3.1" y="9.7" fill="#44B3C2" width="2.1" height="2.2"/>
	<path fill="#44B3C2" d="M26.9,0L26,0.8l2.7,2.8h-2.8c-3.3,0-5.9,2.7-5.9,6h1.2c0-2.6,2.1-4.8,4.7-4.8h2.8L26,7.6l0.8,0.8L31,4.2
		L26.9,0z"/>
	<g>
		<rect x="6.4" y="17" fill="none" width="13" height="5.8"/>
		<path fill="none" d="M6.4,2.5v3.1h10.7V1.3H7.6C6.9,1.3,6.4,1.8,6.4,2.5z"/>
		<path fill="#44B3C2" d="M24.6,18.8c0,0.9-0.7,1.6-1.6,1.6h-2.5v-4.6H5.2v4.6H2.7c-0.9,0-1.6-0.7-1.6-1.6V8.4
			c0-0.9,0.7-1.6,1.6-1.6h14.4V5.6H6.4V2.5c0-0.7,0.5-1.2,1.2-1.2h9.6V0.1H7.6c-1.3,0-2.3,1.1-2.3,2.4v3.2H2.7C1.2,5.7,0,6.9,0,8.4
			v10.4c0,1.5,1.2,2.8,2.7,2.8h2.5V24h15.3v-2.4h2.5c1.5,0,2.7-1.2,2.7-2.8v-7.4h-1.2V18.8z M19.4,22.8h-13V17h13V22.8z"/>
	</g>
</g>
</svg>
