<?xml version="1.0" encoding="utf-8"?>
<!-- Generator: Adobe Illustrator 18.1.1, SVG Export Plug-In . SVG Version: 6.00 Build 0)  -->
<svg version="1.1" id="Layer_1" xmlns="http://www.w3.org/2000/svg" xmlns:xlink="http://www.w3.org/1999/xlink" x="0px" y="0px"
	 width="20px" height="16px" viewBox="0 0 20 16" enable-background="new 0 0 20 16" xml:space="preserve">
<path fill="#676c71" d="M19.7,3c-0.2-0.3-0.5-0.6-1-0.6H3.9L3.8,1.7C3.7,1.3,3.4,1,3,0.8L1.2,0.1c-0.4-0.2-1,0-1.2,0.5
	c-0.2,0.4,0,1,0.5,1.2l1.6,0.7L4,11.7c0.1,0.6,0.6,1,1.1,1.1c0,0,0.1,0,0.1,0c0,0,0,0,0,0h0h1.2c-0.5,0.3-0.8,0.8-0.8,1.5
	c0,1,0.8,1.7,1.8,1.7s1.8-0.8,1.8-1.7c0-0.6-0.3-1.2-0.8-1.5h5.7c-0.5,0.3-0.8,0.8-0.8,1.5c0,1,0.8,1.7,1.8,1.7c1,0,1.8-0.8,1.8-1.7
	c0-0.6-0.3-1.2-0.8-1.5h1.5h0c0.5,0,0.9-0.5,0.9-0.9s-0.4-0.9-0.9-0.9H5.6L5.4,10h12h0c0,0,0,0,0,0c0.1,0,0.1,0,0.2,0
	c0.6-0.1,1-0.6,1.1-1.1L20,4.2C20,3.8,20,3.3,19.7,3z M7.7,14.3c0,0.2-0.2,0.3-0.3,0.3s-0.3-0.2-0.3-0.3c0-0.2,0.2-0.3,0.3-0.3
	S7.7,14.1,7.7,14.3z M15.4,14.3c0,0.2-0.2,0.3-0.3,0.3s-0.3-0.2-0.3-0.3c0-0.2,0.2-0.3,0.3-0.3S15.4,14.1,15.4,14.3z M4.3,4.3h13.8
	L17,8.1h-12L4.3,4.3z"/>
</svg>
