<?xml version="1.0" encoding="utf-8"?>
<!-- Generator: Adobe Illustrator 18.1.1, SVG Export Plug-In . SVG Version: 6.00 Build 0)  -->
<svg version="1.1" id="Layer_1" xmlns="http://www.w3.org/2000/svg" xmlns:xlink="http://www.w3.org/1999/xlink" x="0px" y="0px"
	 width="12px" height="15px" viewBox="0 0 12 15" enable-background="new 0 0 12 15" xml:space="preserve">
<g>
	<polygon fill="#FFFFFF" points="11.5,7.5 0.5,14.5 0.5,0.5 	"/>
</g>
<g>
	<path fill="#626970" d="M0.5,15c-0.1,0-0.2,0-0.2-0.1C0.1,14.9,0,14.7,0,14.5v-14c0-0.2,0.1-0.4,0.3-0.4C0.4,0,0.6,0,0.8,0.1l11,7
		C11.9,7.2,12,7.3,12,7.5s-0.1,0.3-0.2,0.4l-11,7C0.7,15,0.6,15,0.5,15z M1,1.4v12.2l9.6-6.1L1,1.4z"/>
</g>
</svg>
