<?xml version="1.0" encoding="utf-8"?>
<!-- Generator: Adobe Illustrator 18.1.1, SVG Export Plug-In . SVG Version: 6.00 Build 0)  -->
<svg version="1.1" id="Layer_1" xmlns="http://www.w3.org/2000/svg" xmlns:xlink="http://www.w3.org/1999/xlink" x="0px" y="0px"
	 width="16px" height="12px" viewBox="0 0 16 12" enable-background="new 0 0 16 12" xml:space="preserve">
<g>
	<g>
		<path fill="#44B3C2" d="M14,7.1h-1V6c0-2.7-2.2-5-5-5c-1.3,0-2.5,0.5-3.4,1.3L4,1.7c1.1-1,2.5-1.6,4-1.6c3.3,0,6,2.7,6,6V7.1z"/>
	</g>
	<g>
		<polygon fill="#44B3C2" points="13.5,7.8 11,5.3 11.7,4.6 13.5,6.4 15.2,4.7 15.9,5.4 		"/>
	</g>
	<g>
		<path fill="#44B3C2" d="M8,11.9c-3.3,0-6-2.7-6-6V4.9h1V6c0,2.7,2.2,5,5,5c1.3,0,2.5-0.5,3.4-1.3l0.7,0.7
			C10.9,11.4,9.5,11.9,8,11.9z"/>
	</g>
	<g>
		<polygon fill="#44B3C2" points="4.3,7.4 2.5,5.6 0.8,7.3 0.1,6.6 2.5,4.2 5,6.7 		"/>
	</g>
</g>
</svg>
