<?xml version="1.0" encoding="utf-8"?>
<!-- Generator: Adobe Illustrator 18.1.1, SVG Export Plug-In . SVG Version: 6.00 Build 0)  -->
<svg version="1.1" id="Layer_1" xmlns="http://www.w3.org/2000/svg" xmlns:xlink="http://www.w3.org/1999/xlink" x="0px" y="0px"
	 width="26.5px" height="25px" viewBox="0 0 26.5 25" enable-background="new 0 0 26.5 25" xml:space="preserve">
<g>
	<g>
		<path fill="none" stroke="#f1a94e" stroke-width="1.2" stroke-miterlimit="10" d="M17.4,20.2c0-4.3-3.5-7.8-7.8-7.8H4.4"/>
		<polyline fill="none" stroke="#f1a94e" stroke-width="1.2" stroke-miterlimit="10" points="7.5,15.3 4.4,12.3 7.4,9.3 		"/>
	</g>
	<polygon fill="none" points="21.6,5 21.6,8.1 24.7,8.1 	"/>
	<g>
		<polygon fill="none" points="15.9,3.3 17.5,3.3 15.9,1.7 		"/>
		<path fill="#f1a94e" d="M1.9,20.7c-0.5,0-0.9-0.4-0.9-0.9V2C1,1.4,1.4,1,1.9,1h10.5l0,0l0.8,0.7l0,0l1.6,1.6h1.4L13.9,1l-0.6-0.6
			c-0.3-0.3-0.7-0.4-1-0.4h-0.1H1.9C0.9,0,0,0.9,0,2v17.8c0,1.1,0.9,1.9,1.9,1.9h6.6v-1H1.9z"/>
	</g>
	<g>
		<polygon fill="none" points="21.6,8.1 24.7,8.1 21.6,5 		"/>
		<path fill="#f1a94e" d="M26.1,8l-0.6-0.6l-3.2-3.2l-0.6-0.6c-0.3-0.3-0.7-0.4-1-0.4h-0.1H10.3c-1.1,0-1.9,0.9-1.9,1.9v2.2h1V5.2
			c0-0.5,0.4-0.9,0.9-0.9h10.3v4.3c0,0.3,0.2,0.5,0.5,0.5h4.4v13.1v0.2V23c0,0.5-0.4,0.9-0.9,0.9H10.3c-0.5,0-0.9-0.4-0.9-0.9v-5.5
			h-1V23c0,1.1,0.9,1.9,1.9,1.9h14.3c1.1,0,1.9-0.9,1.9-1.9v-0.7v-0.2V9.1v0C26.5,8.7,26.4,8.3,26.1,8z M21.6,8.1V5l3.2,3.1H21.6z"
			/>
	</g>
</g>
</svg>
