<?xml version="1.0" encoding="utf-8"?>
<!-- Generator: Adobe Illustrator 18.1.1, SVG Export Plug-In . SVG Version: 6.00 Build 0)  -->
<svg version="1.1" id="Layer_1" xmlns="http://www.w3.org/2000/svg" xmlns:xlink="http://www.w3.org/1999/xlink" x="0px" y="0px"
	 width="25px" height="21px" viewBox="0 0 25 21" enable-background="new 0 0 25 21" xml:space="preserve">
<g>
	<path fill="#FFFFFF" d="M14.3,21C14.3,21,14.3,21,14.3,21c-0.4,0-0.8-0.3-0.8-0.7c0-0.4,0.3-0.7,0.7-0.7h0c0,0,0,0,0,0
		c2.5,0,4.8-0.9,6.5-2.6c1.7-1.7,2.7-4,2.7-6.4c0-5-4.1-9-9.2-9c0,0,0,0,0,0c-5.1,0-9.2,4-9.2,9v1.7c0,0.4-0.3,0.7-0.7,0.7
		c-0.4,0-0.7-0.3-0.7-0.7v-1.7C3.6,4.7,8.4,0,14.3,0c0,0,0,0,0,0C20.2,0,25,4.7,25,10.5c0,2.8-1.1,5.4-3.1,7.4
		C19.8,19.9,17.2,21,14.3,21z"/>
</g>
<g>
	<path fill="#FFFFFF" d="M19.1,12.9h-6.9V5c0-0.5,0.4-1,1-1s1,0.4,1,1v5.9h4.9c0.5,0,1,0.4,1,1C20.1,12.4,19.6,12.9,19.1,12.9z"/>
</g>
<g>
	<path fill="#FFFFFF" d="M4.4,13.5l-4.1-4c-0.3-0.3-0.3-0.7,0-1c0.3-0.3,0.8-0.3,1,0l3.1,3l3.1-3c0.3-0.3,0.8-0.3,1,0
		c0.3,0.3,0.3,0.8,0,1L4.4,13.5z"/>
</g>
</svg>
