<?xml version="1.0" encoding="utf-8"?>
<!-- Generator: Adobe Illustrator 18.1.1, SVG Export Plug-In . SVG Version: 6.00 Build 0)  -->
<svg version="1.1" id="Layer_1" xmlns="http://www.w3.org/2000/svg" xmlns:xlink="http://www.w3.org/1999/xlink" x="0px" y="0px"
	 width="15px" height="15px" viewBox="0 0 15 15" enable-background="new 0 0 15 15" xml:space="preserve">
<g>
	<path fill="#626970" d="M12.2,15H6.5c-1.5,0-2.8-1.1-2.8-2.5h1c0,0.8,0.8,1.5,1.8,1.5h5.7c1,0,1.8-0.7,1.8-1.5V2.5
		C14,1.7,13.2,1,12.2,1H6.5c-1,0-1.8,0.7-1.8,1.5h-1C3.7,1.1,5,0,6.5,0h5.7C13.7,0,15,1.1,15,2.5v9.9C15,13.9,13.7,15,12.2,15z"/>
</g>
<g>
	<line fill="#FFFFFF" x1="0" y1="7.5" x2="10" y2="7.5"/>
	<rect y="7" fill="#626970" width="10" height="1"/>
</g>
<g>
	<polygon fill="#626970" points="8,10.1 7.3,9.4 9.2,7.5 7.3,5.6 8,4.9 10.7,7.5 	"/>
</g>
</svg>
