<?xml version="1.0" encoding="utf-8"?>
<!-- Generator: Adobe Illustrator 18.1.1, SVG Export Plug-In . SVG Version: 6.00 Build 0)  -->
<svg version="1.1" id="Layer_1" xmlns="http://www.w3.org/2000/svg" xmlns:xlink="http://www.w3.org/1999/xlink" x="0px" y="0px"
	 width="23px" height="23px" viewBox="0 0 23 23" enable-background="new 0 0 23 23" xml:space="preserve">
<g>
	<g>
		<path fill="#f1a94e" d="M18,1l4,4.9v14.8c0,0.7-0.6,1.3-1.3,1.3H2.3C1.6,22,1,21.4,1,20.7V2.3C1,1.6,1.6,1,2.3,1H18 M18.5,0H2.3
			C1,0,0,1,0,2.3v18.4C0,22,1,23,2.3,23h18.4c1.3,0,2.3-1,2.3-2.3V5.6L18.5,0L18.5,0z"/>
	</g>
	<g>
		<path fill="#f1a94e" d="M14,1v4.8H5.1V1h6.1H14 M15,0h-3.8H4.1v6.8H15V0L15,0z"/>
	</g>
	<g>
		<path fill="#f1a94e" d="M17.9,12.5V22H5.1v-9.5H17.9 M18.9,11.5H4.1V23h14.8V11.5L18.9,11.5z"/>
	</g>
	<line fill="none" stroke="#f1a94e" stroke-miterlimit="10" x1="11.2" y1="6.1" x2="11.2" y2="0.9"/>
</g>
</svg>
