<?xml version="1.0" encoding="utf-8"?>
<!-- Generator: Adobe Illustrator 18.1.1, SVG Export Plug-In . SVG Version: 6.00 Build 0)  -->
<svg version="1.1" id="Layer_1" xmlns="http://www.w3.org/2000/svg" xmlns:xlink="http://www.w3.org/1999/xlink" x="0px" y="0px"
	 width="16px" height="18px" viewBox="0 0 16 18" enable-background="new 0 0 16 18" xml:space="preserve">
<path fill="#91969B" d="M13.3,12.7c-0.8,0-1.5,0.3-2,0.9L5.2,9.9C5.3,9.6,5.3,9.3,5.3,9c0-0.3-0.1-0.6-0.2-0.9l6.2-3.7
	c0.5,0.5,1.2,0.9,2,0.9c1.5,0,2.7-1.2,2.7-2.6C16,1.2,14.8,0,13.3,0c-1.5,0-2.7,1.2-2.7,2.6c0,0.3,0.1,0.6,0.2,0.9L4.6,7.2
	c-0.5-0.5-1.2-0.9-2-0.9C1.2,6.4,0,7.5,0,9c0,1.5,1.2,2.6,2.7,2.6c0.8,0,1.5-0.3,2-0.9l6.2,3.7c-0.1,0.3-0.2,0.6-0.2,0.9
	c0,1.5,1.2,2.6,2.7,2.6c1.5,0,2.7-1.2,2.7-2.6C16,13.9,14.8,12.7,13.3,12.7z"/>
</svg>
