<?xml version="1.0" encoding="utf-8"?>
<!-- Generator: Adobe Illustrator 18.1.1, SVG Export Plug-In . SVG Version: 6.00 Build 0)  -->
<svg version="1.1" id="Layer_1" xmlns="http://www.w3.org/2000/svg" xmlns:xlink="http://www.w3.org/1999/xlink" x="0px" y="0px"
	 width="12px" height="14px" viewBox="0 0 12 14" enable-background="new 0 0 12 14" xml:space="preserve">
<path fill="#FFFFFF" d="M10,9.9c-0.6,0-1.1,0.3-1.5,0.7L3.9,7.7C4,7.5,4,7.2,4,7c0-0.2,0-0.5-0.1-0.7l4.7-2.9
	C8.9,3.9,9.4,4.1,10,4.1c1.1,0,2-0.9,2-2.1S11.1,0,10,0S8,0.9,8,2.1c0,0.2,0,0.5,0.1,0.7L3.5,5.6C3.1,5.2,2.6,4.9,2,4.9
	C0.9,4.9,0,5.9,0,7s0.9,2.1,2,2.1c0.6,0,1.1-0.3,1.5-0.7l4.7,2.9C8,11.5,8,11.7,8,11.9c0,1.1,0.9,2.1,2,2.1s2-0.9,2-2.1
	S11.1,9.9,10,9.9z"/>
</svg>
