<?xml version="1.0" encoding="utf-8"?>
<!-- Generator: Adobe Illustrator 18.1.1, SVG Export Plug-In . SVG Version: 6.00 Build 0)  -->
<svg version="1.1" id="Layer_1" xmlns="http://www.w3.org/2000/svg" xmlns:xlink="http://www.w3.org/1999/xlink" x="0px" y="0px"
	 width="19px" height="24px" viewBox="0 0 19 24" enable-background="new 0 0 19 24" xml:space="preserve">
<path fill="#44B3C2" d="M15.5,16.9c-1,0-1.9,0.4-2.5,1.1l-7.6-4.7c0.1-0.1,0.2-0.3,0.2-0.5c0.1-0.3,0.2-0.6,0.2-1
	c0-0.3-0.1-0.7-0.2-1c-0.1-0.2-0.1-0.3-0.2-0.5L13,5.9c0.6,0.7,1.5,1.1,2.5,1.1c1.9,0,3.5-1.6,3.5-3.5S17.4,0,15.5,0
	c-1.9,0-3.5,1.6-3.5,3.5c0,0.4,0.1,0.8,0.2,1.2L4.4,9.5C4,9.2,3.4,9.1,2.9,9.1C1.3,9.1,0,10.4,0,12s1.3,2.9,2.9,2.9
	c0.6,0,1.1-0.2,1.5-0.5l7.9,4.8c-0.1,0.4-0.2,0.8-0.2,1.2c0,1.9,1.6,3.5,3.5,3.5c1.9,0,3.5-1.6,3.5-3.5S17.4,16.9,15.5,16.9z
	 M15.5,1.5c1.1,0,2,0.9,2,2.1c0,1.1-0.9,2.1-2,2.1c-0.5,0-0.9-0.2-1.3-0.5c-0.2-0.1-0.3-0.3-0.5-0.5c0,0,0,0,0,0
	c-0.1-0.2-0.2-0.4-0.3-0.7c0-0.1,0-0.3,0-0.4C13.5,2.4,14.4,1.5,15.5,1.5z M2.9,13.7c-0.9,0-1.7-0.8-1.7-1.7c0-0.9,0.8-1.7,1.7-1.7
	c0.4,0,0.8,0.1,1.1,0.4c0.3,0.2,0.5,0.6,0.6,1c0,0.1,0,0.2,0,0.3c0,0.1,0,0.2,0,0.3c-0.1,0.4-0.3,0.8-0.6,1
	C3.6,13.6,3.3,13.7,2.9,13.7z M15.5,22.5c-1.1,0-2-0.9-2-2.1c0-0.1,0-0.3,0-0.4c0.1-0.5,0.4-0.9,0.7-1.2c0.3-0.3,0.8-0.5,1.3-0.5
	c1.1,0,2,0.9,2,2.1C17.6,21.6,16.7,22.5,15.5,22.5z"/>
</svg>
