<?xml version="1.0" encoding="utf-8"?>
<!-- Generator: Adobe Illustrator 18.1.1, SVG Export Plug-In . SVG Version: 6.00 Build 0)  -->
<svg version="1.1" id="Layer_1" xmlns="http://www.w3.org/2000/svg" xmlns:xlink="http://www.w3.org/1999/xlink" x="0px" y="0px"
	 width="24px" height="24px" viewBox="0 0 24 24" enable-background="new 0 0 24 24" xml:space="preserve">
<g>
	<g>
		<path fill="#44B3C2" d="M19.4,1L23,5.5V19c0,0.6-0.5,1.1-1.1,1.1h-17c-0.6,0-1.1-0.5-1.1-1.1V2.1C3.8,1.5,4.3,1,4.9,1H19.4
			 M19.9,0H4.9C3.7,0,2.8,0.9,2.8,2.1V19c0,1.2,0.9,2.1,2.1,2.1h17c1.2,0,2.1-0.9,2.1-2.1V5.1L19.9,0L19.9,0z"/>
	</g>
	<g>
		<path fill="#44B3C2" d="M15.6,1v4.2H7.6V1h5.6H15.6 M16.6,0h-3.5H6.6v6.2h10.1V0L16.6,0z"/>
	</g>
	<g>
		<path fill="#44B3C2" d="M19.6,11.5v8.5H7.2v-8.5H19.6 M20.6,10.5H6.2v10.5h14.5V10.5L20.6,10.5z"/>
	</g>
	<line fill="none" stroke="#44B3C2" stroke-miterlimit="10" x1="13.1" y1="5.6" x2="13.1" y2="0.8"/>
	<path fill="#44B3C2" d="M19.6,22c0,0.5-0.4,0.9-1,0.9H2c-0.5,0-1-0.4-1-0.9V6.1c0-0.5,0.4-0.9,1-0.9h0.8v-1H2c-1.1,0-2,0.9-2,2V22
		c0,1.1,0.9,2,2,2h16.6c1.1,0,2-0.9,2-2v-1.5h-1.1V22z"/>
</g>
</svg>
