<?xml version="1.0" encoding="utf-8"?>
<!-- Generator: Adobe Illustrator 18.1.1, SVG Export Plug-In . SVG Version: 6.00 Build 0)  -->
<svg version="1.1" id="Layer_1" xmlns="http://www.w3.org/2000/svg" xmlns:xlink="http://www.w3.org/1999/xlink" x="0px" y="0px"
	 width="30px" height="35px" viewBox="0 0 30 35" enable-background="new 0 0 30 35" xml:space="preserve">
<g>
	<path fill="#B0B4B7" d="M22,25.4c-0.7-0.1-1.4,0.4-1.6,1.2c-0.1,0.8,0.4,1.5,1.2,1.6c2.5,0.4,4,0.9,4.8,1.3c0.4,0.2,0.4,0.8,0,1
		c-1.7,0.8-5.7,1.7-11.4,1.7c-5.7,0-9.6-0.9-11.4-1.7c-0.4-0.2-0.4-0.8,0-1C4.5,29,6,28.5,8.4,28.1c0.7-0.1,1.3-0.8,1.2-1.6
		c-0.1-0.8-0.8-1.3-1.6-1.2c-5.3,0.8-8,2.4-8,4.6C0,34.9,13.5,35,15,35s15-0.1,15-5.1C30,27.7,27.3,26.2,22,25.4z"/>
	<path fill="#B0B4B7" d="M15,30.9c0,0,7.4-12.7,9.4-17.2C27.3,7.2,21.9,0,15,0S2.7,7.2,5.6,13.7C7.6,18.2,15,30.9,15,30.9z M8.6,6.4
		C10,4.2,12.5,2.8,15,2.8s5,1.4,6.4,3.6c1.2,1.9,1.4,4.1,0.5,6.1c-1.2,2.7-4.6,8.8-6.9,12.8c-2.3-4.1-5.7-10.1-6.9-12.8
		C7.2,10.6,7.4,8.3,8.6,6.4z"/>
	<path fill="#B0B4B7" d="M15,15.9c2.8,0,5.2-2.4,5.2-5.3c0-2.9-2.3-5.3-5.2-5.3s-5.1,2.4-5.1,5.3C9.9,13.6,12.2,15.9,15,15.9z
		 M15,8.2c1.3,0,2.4,1.1,2.4,2.5c0,1.4-1.1,2.5-2.4,2.5c-1.3,0-2.4-1.1-2.4-2.5C12.6,9.3,13.7,8.2,15,8.2z"/>
</g>
</svg>
