<?xml version="1.0" encoding="utf-8"?>
<!-- Generator: Adobe Illustrator 18.1.1, SVG Export Plug-In . SVG Version: 6.00 Build 0)  -->
<svg version="1.1" id="Layer_1" xmlns="http://www.w3.org/2000/svg" xmlns:xlink="http://www.w3.org/1999/xlink" x="0px" y="0px"
	 width="16px" height="15px" viewBox="0 0 16 15" enable-background="new 0 0 16 15" xml:space="preserve">
<g>
	<path fill="#F1A94E" d="M7.9,13l-3.6,1.9c-0.5,0.2-1.1,0.1-1.4-0.3c-0.2-0.3-0.3-0.6-0.2-0.9l0.7-4c0,0,0-0.1,0-0.1L0.4,6.8
		C0,6.5-0.1,6.1,0.1,5.7C0.2,5.2,0.5,4.9,1,4.9L5,4.3c0,0,0.1,0,0.1-0.1L7,0.6C7.2,0.2,7.6,0,8,0c0.4,0,0.8,0.2,1,0.6l1.8,3.6
		c0,0,0.1,0.1,0.1,0.1L15,4.9c0.4,0.1,0.8,0.4,0.9,0.8c0.1,0.4,0,0.9-0.3,1.2l-2.9,2.8c0,0,0,0.1,0,0.1l0.7,4c0.1,0.3,0,0.7-0.2,0.9
		c-0.2,0.3-0.5,0.4-0.9,0.4c-0.2,0-0.4,0-0.5-0.1L8.1,13"/>
</g>
</svg>
