<?xml version="1.0" encoding="utf-8"?>
<!-- Generator: Adobe Illustrator 18.1.1, SVG Export Plug-In . SVG Version: 6.00 Build 0)  -->
<svg version="1.1" id="Layer_1" xmlns="http://www.w3.org/2000/svg" xmlns:xlink="http://www.w3.org/1999/xlink" x="0px" y="0px"
	 width="15px" height="15px" viewBox="0 0 15 15" enable-background="new 0 0 15 15" xml:space="preserve">
<g>
	<path fill="#44B3C2" d="M12.3,0H2.7C1.2,0,0,1.2,0,2.7v9.6C0,13.8,1.2,15,2.7,15h9.6c1.5,0,2.7-1.2,2.7-2.7V2.7
		C15,1.2,13.8,0,12.3,0z M13.9,12.3c0,0.9-0.7,1.6-1.6,1.6H2.7c-0.9,0-1.6-0.7-1.6-1.6V2.7c0-0.9,0.7-1.6,1.6-1.6h9.6
		c0.9,0,1.6,0.7,1.6,1.6V12.3z"/>
	<polygon fill="#44B3C2" points="10.5,3.7 7.5,6.7 4.5,3.7 3.7,4.5 6.7,7.5 3.7,10.5 4.5,11.3 7.5,8.3 10.5,11.3 11.3,10.5 8.3,7.5 
		11.3,4.5 	"/>
</g>
</svg>
