<?xml version="1.0" encoding="utf-8"?>
<!-- Generator: Adobe Illustrator 18.1.1, SVG Export Plug-In . SVG Version: 6.00 Build 0)  -->
<svg version="1.1" id="Layer_1" xmlns="http://www.w3.org/2000/svg" xmlns:xlink="http://www.w3.org/1999/xlink" x="0px" y="0px"
	 width="34px" height="33px" viewBox="0 0 34 33" enable-background="new 0 0 34 33" xml:space="preserve">
<g>
	<g>
		<g>
			<g>
				<path fill="#F1A94E" d="M33.9,19.9l-2,0c0,3.9-2.9,7.2-6.6,7.7l1.5-1.6l-1.4-1.4l-4,4.1l3.9,3.9l1.4-1.4l-1.7-1.7
					C30.1,29.3,34,25,33.9,19.9z"/>
			</g>
			<g>
				<path fill="#F1A94E" d="M7.3,1.7L9,3.4C4,3.7,0.1,7.9,0.1,13h2c0-4,2.9-7.2,6.7-7.6L7.2,7l1.4,1.4l4-4.1l-3.9-4L7.3,1.7z"/>
			</g>
		</g>
	</g>
	<g>
		<path fill="#44B3C2" d="M14.1,23.5c-2.3,0-4.2-1.9-4.2-4.2c0-2.3,1.9-4.2,4.2-4.2c0.3,0,0.5,0.2,0.5,0.5s-0.2,0.5-0.5,0.5
			c-1.7,0-3.2,1.4-3.2,3.2s1.4,3.2,3.2,3.2c1.7,0,3.2-1.4,3.2-3.2c0-0.3,0.2-0.5,0.5-0.5s0.5,0.2,0.5,0.5
			C18.2,21.6,16.4,23.5,14.1,23.5z"/>
	</g>
	<g>
		<path fill="#44B3C2" d="M16.5,29.1c-0.5,0-1-0.3-1.3-0.8l-0.3-0.8c-0.6,0.1-1.2,0.1-1.8,0l-0.3,0.8c-0.3,0.7-1.1,1-1.8,0.7
			l-1.7-0.7c-0.7-0.3-1-1.1-0.7-1.8l0.3-0.8c-0.5-0.4-0.9-0.8-1.3-1.3l-0.8,0.3c-0.3,0.1-0.7,0.1-1,0c-0.3-0.1-0.6-0.4-0.7-0.7
			l-0.7-1.7c-0.1-0.3-0.1-0.7,0-1c0.1-0.3,0.4-0.6,0.7-0.7L6,20.1c-0.1-0.6-0.1-1.2,0-1.8L5.2,18c-0.3-0.1-0.6-0.4-0.7-0.7
			c-0.1-0.3-0.1-0.7,0-1l0.7-1.7c0.1-0.3,0.4-0.6,0.7-0.7c0.3-0.1,0.7-0.1,1,0l0.8,0.3c0.4-0.5,0.8-0.9,1.3-1.3l-0.3-0.8
			c-0.1-0.3-0.1-0.7,0-1s0.4-0.6,0.7-0.7l1.7-0.7c0.7-0.3,1.5,0.1,1.8,0.7l0.5,1.2c0.1,0.3,0,0.5-0.3,0.7c-0.3,0.1-0.5,0-0.7-0.3
			L12,10.8c0-0.1-0.1-0.2-0.2-0.2c-0.1,0-0.2,0-0.3,0l-1.7,0.7c-0.1,0-0.2,0.1-0.2,0.2c0,0.1,0,0.2,0,0.3l0.6,1.5l-0.3,0.2
			c-0.6,0.4-1.2,1-1.6,1.6l-0.2,0.3l-1.5-0.6c-0.1,0-0.2,0-0.3,0c-0.1,0-0.2,0.1-0.2,0.2l-0.7,1.7c-0.1,0.2,0,0.4,0.2,0.5l1.5,0.6
			L7,18.1c-0.1,0.8-0.1,1.5,0,2.3L7,20.8l-1.5,0.6c-0.1,0-0.2,0.1-0.2,0.2c0,0.1,0,0.2,0,0.3L6,23.6c0,0.1,0.1,0.2,0.2,0.2
			c0.1,0,0.2,0,0.3,0L8,23.1l0.2,0.3c0.4,0.6,1,1.2,1.6,1.6l0.3,0.2l-0.6,1.5c-0.1,0.2,0,0.4,0.2,0.5l1.7,0.7c0.2,0.1,0.4,0,0.5-0.2
			l0.6-1.5l0.4,0.1c0.8,0.1,1.5,0.1,2.3,0l0.4-0.1l0.6,1.5c0.1,0.2,0.3,0.3,0.5,0.2l1.7-0.7c0.1,0,0.2-0.1,0.2-0.2
			c0-0.1,0-0.2,0-0.3l-0.6-1.5l0.3-0.2c0.6-0.4,1.2-1,1.6-1.6l0.2-0.3l1.5,0.6c0.1,0,0.2,0,0.3,0c0.1,0,0.2-0.1,0.2-0.2l0.7-1.7
			c0-0.1,0-0.2,0-0.3s-0.1-0.2-0.2-0.2L21.4,21c-0.3-0.1-0.4-0.4-0.3-0.7c0.1-0.3,0.4-0.4,0.7-0.3l1.2,0.5c0.3,0.1,0.6,0.4,0.7,0.7
			s0.1,0.7,0,1L23,24.1c-0.1,0.3-0.4,0.6-0.7,0.7c-0.3,0.1-0.7,0.1-1,0l-0.8-0.3c-0.4,0.5-0.8,0.9-1.3,1.3l0.3,0.8
			c0.1,0.3,0.1,0.7,0,1c-0.1,0.3-0.4,0.6-0.7,0.7L17,29C16.8,29.1,16.7,29.1,16.5,29.1z"/>
	</g>
	<g>
		<g>
			<path fill="#44B3C2" d="M29.4,10.8c0-0.5-0.4-1-1-1l-0.6,0c-0.1-0.4-0.3-0.8-0.5-1.2l0.5-0.5C27.9,8,28,7.7,28,7.5
				c0-0.3-0.1-0.5-0.3-0.7l-0.9-0.9c-0.4-0.4-1-0.4-1.4,0l-0.5,0.5c-0.4-0.2-0.8-0.4-1.2-0.5l0-0.6c0-0.5-0.5-1-1-1l-1.3,0
				c-0.3,0-0.5,0.1-0.7,0.3c-0.2,0.2-0.3,0.4-0.3,0.7l0,0.6C20,6,19.6,6.1,19.2,6.4l-0.5-0.5c-0.4-0.4-1-0.4-1.4,0l-0.9,0.9
				c-0.4,0.4-0.4,1,0,1.4l0.5,0.5c-0.2,0.4-0.4,0.8-0.5,1.2l-0.6,0c-0.5,0-1,0.4-1,1l0,1.3c0,0.5,0.5,1,1,1l0.6,0
				c0.1,0.4,0.3,0.8,0.5,1.2l-0.5,0.5c-0.2,0.2-0.3,0.4-0.3,0.7c0,0.3,0.1,0.5,0.3,0.7l0.9,0.9c0.4,0.4,1,0.4,1.4,0l0.5-0.5
				c0.4,0.2,0.8,0.4,1.2,0.5l0,0.6c0,0.4,0.2,0.7,0.6,0.9c0.1,0,0.2,0.1,0.4,0.1l1.3,0c0.3,0,0.5-0.1,0.7-0.3
				c0.2-0.2,0.3-0.4,0.3-0.7l0-0.6c0.4-0.1,0.8-0.3,1.2-0.5l0.5,0.5c0.1,0.1,0.2,0.2,0.3,0.2c0.4,0.1,0.8,0.1,1-0.2l0.9-0.9
				c0.4-0.4,0.4-1,0-1.4l-0.5-0.5c0.2-0.4,0.4-0.8,0.5-1.2l0.6,0c0.5,0,1-0.4,1-1L29.4,10.8z M22.1,13.5c-1.1,0-2-0.9-2-2s0.9-2,2-2
				c1.1,0,2,0.9,2,2S23.2,13.5,22.1,13.5z"/>
		</g>
	</g>
</g>
</svg>
