<?xml version="1.0" encoding="utf-8"?>
<!-- Generator: Adobe Illustrator 18.1.1, SVG Export Plug-In . SVG Version: 6.00 Build 0)  -->
<svg version="1.1" id="Layer_1" xmlns="http://www.w3.org/2000/svg" xmlns:xlink="http://www.w3.org/1999/xlink" x="0px" y="0px"
	 width="19px" height="20px" viewBox="0 0 19 20" enable-background="new 0 0 19 20" xml:space="preserve">
<g>
	<path fill="#FFFFFF" d="M17.5,2.5C17.5,2.5,17.5,2.6,17.5,2.5l0.1,15.9c0,0,0,0.1-0.1,0.1H1.5c0,0-0.1,0-0.1-0.1V2.6
		c0,0,0-0.1,0.1-0.1H17.5 M17.5,1H1.5C0.7,1,0,1.7,0,2.6v15.8C0,19.3,0.7,20,1.5,20h15.9c0.8,0,1.5-0.7,1.5-1.6V2.6
		C19,1.7,18.3,1,17.5,1L17.5,1z"/>
	<path fill="#FFFFFF" d="M13.7,0H5.3C4.8,0,4.4,0.4,4.4,1v0c0,0.5,0.4,1,0.9,1h8.3c0.5,0,0.9-0.4,0.9-1v0C14.6,0.4,14.2,0,13.7,0
		L13.7,0z"/>
	
		<line fill="none" stroke="#FFFFFF" stroke-width="2" stroke-linecap="round" stroke-linejoin="round" stroke-miterlimit="10" x1="4.6" y1="10.4" x2="14.4" y2="10.4"/>
	
		<line fill="none" stroke="#FFFFFF" stroke-width="2" stroke-linecap="round" stroke-linejoin="round" stroke-miterlimit="10" x1="4.6" y1="6.4" x2="14.4" y2="6.4"/>
	
		<line fill="none" stroke="#FFFFFF" stroke-width="2" stroke-linecap="round" stroke-linejoin="round" stroke-miterlimit="10" x1="4.6" y1="15.4" x2="14.4" y2="15.4"/>
</g>
</svg>
